<svg width="40" height="40" viewBox="0 0 40 40" fill="none" xmlns="http://www.w3.org/2000/svg">
<rect width="40" height="40" rx="20" fill="url(#paint0_linear_83_3703)"/>
<path fill-rule="evenodd" clip-rule="evenodd" d="M20.0575 7.45825H19.9423C19.1667 7.45821 18.4983 7.45818 17.9631 7.53013C17.3895 7.60725 16.8397 7.78115 16.3938 8.2271C15.9478 8.67306 15.7739 9.22286 15.6968 9.79644C15.6248 10.3316 15.6249 11 15.6249 11.7757L15.6249 14.6076C15.3512 14.5109 15.0567 14.4583 14.7499 14.4583H11.2499C9.80017 14.4583 8.62492 15.6335 8.62492 17.0833V30.7916H8.33325C7.85 30.7916 7.45825 31.1833 7.45825 31.6666C7.45825 32.1498 7.85 32.5416 8.33325 32.5416H31.6666C32.1498 32.5416 32.5416 32.1498 32.5416 31.6666C32.5416 31.1833 32.1498 30.7916 31.6666 30.7916H31.3749V22.9166C31.3749 21.4668 30.1997 20.2916 28.7499 20.2916H25.2499C24.9431 20.2916 24.6486 20.3442 24.3749 20.441L24.3749 11.7757C24.375 11 24.375 10.3316 24.303 9.79644C24.2259 9.22286 24.052 8.67306 23.6061 8.2271C23.1601 7.78115 22.6103 7.60725 22.0367 7.53013C21.5015 7.45818 20.8332 7.45821 20.0575 7.45825ZM29.6249 30.7916V22.9166C29.6249 22.4333 29.2332 22.0416 28.7499 22.0416H25.2499C24.7667 22.0416 24.3749 22.4333 24.3749 22.9166V30.7916H29.6249ZM22.6249 30.7916V11.8333C22.6249 10.9836 22.6231 10.4343 22.5687 10.0296C22.5176 9.6501 22.4352 9.53115 22.3686 9.46454C22.302 9.39793 22.1831 9.31555 21.8036 9.26453C21.3989 9.21012 20.8496 9.20826 19.9999 9.20826C19.1502 9.20826 18.601 9.21012 18.1963 9.26453C17.8168 9.31555 17.6978 9.39793 17.6312 9.46454C17.5646 9.53115 17.4822 9.6501 17.4312 10.0296C17.3768 10.4343 17.3749 10.9836 17.3749 11.8333V30.7916H22.6249ZM15.6249 30.7916V17.0833C15.6249 16.6 15.2332 16.2083 14.7499 16.2083H11.2499C10.7667 16.2083 10.3749 16.6 10.3749 17.0833V30.7916H15.6249Z" fill="white"/>
<defs>
<linearGradient id="paint0_linear_83_3703" x1="40" y1="0" x2="0" y2="40" gradientUnits="userSpaceOnUse">
<stop stop-color="#107CE0"/>
<stop offset="1" stop-color="#0093C9"/>
</linearGradient>
</defs>
</svg>
