<svg width="33" height="32" viewBox="0 0 33 32" fill="none" xmlns="http://www.w3.org/2000/svg">
<path fill-rule="evenodd" clip-rule="evenodd" d="M2.16675 2.6665C2.16675 2.11422 2.61446 1.6665 3.16675 1.6665H29.8334C30.3857 1.6665 30.8334 2.11422 30.8334 2.6665C30.8334 3.21879 30.3857 3.6665 29.8334 3.6665H28.1667V14.0771C28.1668 16.0542 28.1668 17.6448 27.9895 18.8951C27.8049 20.1961 27.4112 21.2743 26.5158 22.1231C25.6279 22.9647 24.5128 23.3282 23.1664 23.4998C21.8583 23.6665 20.1896 23.6665 18.0947 23.6665H17.5001V27.3818L19.614 28.4387C20.1079 28.6857 20.3082 29.2864 20.0612 29.7804C19.8142 30.2744 19.2135 30.4746 18.7195 30.2276L16.5001 29.1179L14.2806 30.2276C13.7866 30.4746 13.186 30.2744 12.939 29.7804C12.692 29.2864 12.8922 28.6857 13.3862 28.4387L15.5001 27.3818V23.6665H14.9055C12.8105 23.6665 11.1419 23.6665 9.83375 23.4998C8.48741 23.3282 7.3723 22.9647 6.4844 22.1231C5.58896 21.2743 5.19522 20.1961 5.01069 18.8951C4.83336 17.6448 4.83338 16.0542 4.83341 14.0771L4.83341 3.6665H3.16675C2.61446 3.6665 2.16675 3.21879 2.16675 2.6665ZM6.83341 3.6665V13.9998C6.83341 16.0724 6.83577 17.5207 6.99087 18.6143C7.14108 19.6733 7.41681 20.2511 7.86031 20.6715C8.31135 21.0991 8.94321 21.3702 10.0866 21.5159C11.2535 21.6646 12.7944 21.6665 14.9763 21.6665H18.0239C20.2057 21.6665 21.7467 21.6646 22.9136 21.5159C24.057 21.3702 24.6888 21.0991 25.1399 20.6715C25.5834 20.2511 25.8591 19.6733 26.0093 18.6143C26.1644 17.5207 26.1667 16.0724 26.1667 13.9998V3.6665H6.83341ZM21.2072 10.6261C21.5977 11.0166 21.5977 11.6498 21.2072 12.0403L19.4833 13.7641C19.4726 13.7749 19.4617 13.7857 19.4509 13.7966C19.2575 13.9901 19.0485 14.1993 18.8483 14.352C18.6137 14.531 18.278 14.7237 17.8334 14.7237C17.3888 14.7237 17.0531 14.531 16.8185 14.352C16.6183 14.1993 16.4093 13.9901 16.216 13.7966C16.2051 13.7857 16.1943 13.7749 16.1835 13.7641L15.4025 12.9831C15.309 12.8897 15.2333 12.814 15.1667 12.7496C15.1002 12.814 15.0245 12.8897 14.931 12.9831L13.2072 14.7069C12.8167 15.0975 12.1835 15.0975 11.793 14.7069C11.4024 14.3164 11.4024 13.6833 11.793 13.2927L13.5168 11.5689C13.5276 11.5581 13.5384 11.5473 13.5493 11.5364C13.7426 11.3429 13.9516 11.1337 14.1519 10.981C14.3865 10.802 14.7221 10.6093 15.1667 10.6093C15.6114 10.6093 15.947 10.802 16.1816 10.981C16.3819 11.1337 16.5909 11.3429 16.7842 11.5364C16.7951 11.5473 16.8059 11.5581 16.8167 11.5689L17.5977 12.3499C17.6911 12.4433 17.7669 12.519 17.8334 12.5834C17.9 12.519 17.9757 12.4433 18.0691 12.3499L19.793 10.6261C20.1835 10.2355 20.8167 10.2355 21.2072 10.6261Z" fill="#575F67"/>
</svg>
