<svg width="32" height="32" viewBox="0 0 32 32" fill="none" xmlns="http://www.w3.org/2000/svg">
<path fill-rule="evenodd" clip-rule="evenodd" d="M24.1209 3.39836C23.3844 2.98595 22.6003 2.94441 21.7715 3.048C20.9842 3.1464 20.0264 3.39535 18.8753 3.69453L16.1843 4.39387C15.0337 4.69284 14.0757 4.94178 13.3427 5.23854C12.572 5.55057 11.9057 5.96981 11.4734 6.69593C11.0385 7.42664 10.9953 8.20779 11.1037 9.0237C11.2059 9.79297 11.4638 10.7265 11.7711 11.8387L12.4945 14.4572C12.8019 15.57 13.0597 16.5033 13.3676 17.2186C13.6944 17.978 14.131 18.6245 14.8719 19.0394C15.6083 19.4518 16.3924 19.4933 17.2213 19.3897C18.0085 19.2913 18.9664 19.0424 20.1174 18.7432L22.8085 18.0438C23.959 17.7449 24.917 17.4959 25.65 17.1992C26.4207 16.8871 27.0871 16.4679 27.5193 15.7418C27.9543 15.0111 27.9975 14.2299 27.8891 13.414C27.7869 12.6447 27.5289 11.7112 27.2216 10.599L26.4982 7.98048C26.1908 6.86774 25.933 5.93435 25.6252 5.21912C25.2983 4.45969 24.8617 3.81319 24.1209 3.39836ZM19.3131 5.6472C20.5463 5.3267 21.3772 5.11284 22.0195 5.03256C22.635 4.95564 22.9296 5.02346 23.1437 5.14339C23.3536 5.26089 23.554 5.46574 23.7881 6.00978C24.0351 6.58358 24.2581 7.38245 24.5891 8.58064L25.275 11.0634C25.6061 12.2619 25.8247 13.0615 25.9065 13.6774C25.9842 14.2624 25.9146 14.5274 25.8008 14.7188C25.6841 14.9147 25.4727 15.1133 24.8995 15.3453C24.3025 15.587 23.473 15.8047 22.2395 16.1253L19.6797 16.7905C18.4465 17.111 17.6156 17.3249 16.9733 17.4051C16.3578 17.4821 16.0632 17.4142 15.849 17.2943C15.6392 17.1768 15.4388 16.972 15.2046 16.4279C14.9577 15.8541 14.7347 15.0553 14.4037 13.8571L13.7178 11.3743C13.3867 10.1758 13.1681 9.37623 13.0863 8.76029C13.0085 8.17531 13.0781 7.91026 13.192 7.71894C13.3086 7.52303 13.52 7.32445 14.0933 7.09237C14.6903 6.85067 15.5197 6.63302 16.7532 6.31245L19.3131 5.6472Z" fill="#575F67"/>
<path fill-rule="evenodd" clip-rule="evenodd" d="M4.26736 6.29959C3.73518 6.15194 3.18406 6.46366 3.03641 6.99584C2.88876 7.52803 3.20048 8.07914 3.73266 8.22679L6.00426 8.85704C6.57172 9.01448 6.99431 9.44315 7.13868 9.96569L9.74042 19.3832C9.64047 19.4029 9.54056 19.4256 9.44082 19.4515C6.80475 20.1366 5.19393 22.7883 5.91757 25.4077C6.63772 28.0144 9.37595 29.5178 12.0016 28.8355C14.2993 28.2383 15.8181 26.1469 15.6909 23.8852L26.9182 20.9674C27.4527 20.8285 27.7734 20.2826 27.6345 19.7481C27.4956 19.2135 26.9497 18.8928 26.4152 19.0317L15.1643 21.9556C14.4865 20.6391 13.2417 19.7236 11.8223 19.4082L9.06646 9.43311C8.72896 8.21146 7.76147 7.26903 6.53895 6.92984L4.26736 6.29959ZM9.94387 21.3872C11.5595 20.9674 13.1808 21.9051 13.597 23.4119C14.0098 24.9062 13.1037 26.4826 11.4985 26.8998C9.88289 27.3197 8.26164 26.3819 7.84535 24.8751C7.43255 23.3809 8.33868 21.8044 9.94387 21.3872Z" fill="#575F67"/>
</svg>
