<svg width="32" height="32" viewBox="0 0 32 32" fill="none" xmlns="http://www.w3.org/2000/svg">
<path d="M22.6113 12.9998C22.059 12.9998 21.6113 12.5521 21.6113 11.9998L21.6113 2.6665C21.6113 2.11422 22.059 1.6665 22.6113 1.6665C23.1636 1.6665 23.6113 2.11422 23.6113 2.6665L23.6113 11.9998C23.6113 12.5521 23.1636 12.9998 22.6113 12.9998Z" fill="#575F67"/>
<path fill-rule="evenodd" clip-rule="evenodd" d="M9.33325 7.6665C12.0947 7.6665 14.3333 9.90508 14.3333 12.6665C14.3333 15.4279 12.0947 17.6665 9.33325 17.6665C6.57183 17.6665 4.33325 15.4279 4.33325 12.6665C4.33325 9.90508 6.57183 7.6665 9.33325 7.6665ZM12.3333 12.6665C12.3333 11.0097 10.9901 9.6665 9.33325 9.6665C7.6764 9.6665 6.33325 11.0097 6.33325 12.6665C6.33325 14.3234 7.6764 15.6665 9.33325 15.6665C10.9901 15.6665 12.3333 14.3234 12.3333 12.6665Z" fill="#575F67"/>
<path fill-rule="evenodd" clip-rule="evenodd" d="M22.6666 24.3332C25.428 24.3332 27.6666 22.0946 27.6666 19.3332C27.6666 16.5717 25.428 14.3332 22.6666 14.3332C19.9052 14.3332 17.6666 16.5717 17.6666 19.3332C17.6666 22.0946 19.9052 24.3332 22.6666 24.3332ZM25.6666 19.3332C25.6666 20.99 24.3234 22.3332 22.6666 22.3332C21.0097 22.3332 19.6666 20.99 19.6666 19.3332C19.6666 17.6763 21.0097 16.3332 22.6666 16.3332C24.3234 16.3332 25.6666 17.6763 25.6666 19.3332Z" fill="#575F67"/>
<path d="M8.27795 19.9998C8.27795 19.4476 8.72566 18.9998 9.27795 18.9998C9.83023 18.9998 10.2779 19.4476 10.2779 19.9998V29.3332C10.2779 29.8855 9.83023 30.3332 9.27795 30.3332C8.72566 30.3332 8.27795 29.8855 8.27795 29.3332V19.9998Z" fill="#575F67"/>
<path d="M22.6113 30.3332C22.059 30.3332 21.6113 29.8855 21.6113 29.3332V26.6665C21.6113 26.1142 22.059 25.6665 22.6113 25.6665C23.1636 25.6665 23.6113 26.1142 23.6113 26.6665V29.3332C23.6113 29.8855 23.1636 30.3332 22.6113 30.3332Z" fill="#575F67"/>
<path d="M8.27795 2.6665C8.27795 2.11422 8.72566 1.6665 9.27795 1.6665C9.83023 1.6665 10.2779 2.11422 10.2779 2.6665V5.33317C10.2779 5.88546 9.83023 6.33317 9.27795 6.33317C8.72566 6.33317 8.27795 5.88546 8.27795 5.33317V2.6665Z" fill="#575F67"/>
</svg>
