<svg width="81" height="80" viewBox="0 0 81 80" fill="none" xmlns="http://www.w3.org/2000/svg">
<path fill-rule="evenodd" clip-rule="evenodd" d="M40.5001 4.1665C38.4843 4.1665 36.6282 4.66746 34.596 5.50791C32.6337 6.31945 30.3545 7.51553 27.5164 9.00492L20.6247 12.6215C17.1415 14.4494 14.3539 15.9122 12.2017 17.3495C9.97187 18.8386 8.25448 20.4065 7.00382 22.5304C5.75735 24.6472 5.19661 26.9393 4.92771 29.6689C4.6667 32.3184 4.66672 35.577 4.66675 39.675V40.3246C4.66672 44.4226 4.6667 47.6812 4.92771 50.3308C5.19661 53.0604 5.75735 55.3525 7.00382 57.4692C8.25448 59.5931 9.97187 61.161 12.2017 62.6501C14.3539 64.0875 17.1414 65.5502 20.6246 67.3781L27.5161 70.9946C30.3543 72.4841 32.6336 73.6802 34.596 74.4918C36.6282 75.3322 38.4843 75.8332 40.5001 75.8332C42.5158 75.8332 44.3719 75.3322 46.4042 74.4918C48.3665 73.6802 50.6456 72.4842 53.4837 70.9948L60.3754 67.3782C63.8586 65.5503 66.6462 64.0875 68.7985 62.6501C71.0283 61.161 72.7457 59.5931 73.9963 57.4692C75.2428 55.3525 75.8036 53.0604 76.0725 50.3308C76.3335 47.6813 76.3334 44.4227 76.3334 40.3247V39.675C76.3334 35.577 76.3335 32.3184 76.0725 29.6689C75.8036 26.9393 75.2428 24.6472 73.9963 22.5304C72.7457 20.4065 71.0283 18.8386 68.7985 17.3495C66.6462 15.9122 63.8587 14.4494 60.3754 12.6215L53.4838 9.00497C50.6457 7.51556 48.3665 6.31946 46.4042 5.50791C44.3719 4.66746 42.5158 4.1665 40.5001 4.1665ZM29.7361 13.4868C32.7018 11.9304 34.7801 10.8425 36.5068 10.1284C38.1875 9.43331 39.3683 9.1665 40.5001 9.1665C41.6319 9.1665 42.8126 9.43331 44.4933 10.1284C46.2201 10.8425 48.2984 11.9304 51.2641 13.4868L57.9307 16.9853C61.5631 18.8914 64.115 20.2342 66.0217 21.5076C66.9624 22.1358 67.7016 22.7191 68.2983 23.3056L57.196 28.8568L28.8632 13.9448L29.7361 13.4868ZM23.649 16.6811L23.0694 16.9853C19.4371 18.8914 16.8852 20.2342 14.9785 21.5076C14.0378 22.1358 13.2986 22.7191 12.7019 23.3056L40.5001 37.2048L51.6906 31.6095L24.3357 17.2121C24.0699 17.0723 23.8398 16.8913 23.649 16.6811ZM10.2924 27.6911C10.124 28.404 9.99677 29.2136 9.90362 30.1591C9.66955 32.5352 9.66675 35.5479 9.66675 39.8049V40.1948C9.66675 44.4518 9.66955 47.4645 9.90362 49.8406C10.1326 52.1645 10.5675 53.6672 11.3123 54.9322C12.053 56.19 13.1243 57.2538 14.9785 58.4921C16.8852 59.7654 19.4371 61.1083 23.0694 63.0144L29.7361 66.5129C32.7018 68.0693 34.7801 69.1572 36.5068 69.8713C37.0521 70.0968 37.5447 70.2772 38.0001 70.4181V41.5449L10.2924 27.6911ZM43.0001 70.4181C43.4555 70.2772 43.9481 70.0968 44.4933 69.8713C46.2201 69.1572 48.2984 68.0693 51.2641 66.5129L57.9307 63.0144C61.5631 61.1082 64.115 59.7654 66.0217 58.4921C67.8759 57.2538 68.9472 56.19 69.6878 54.9322C70.4327 53.6672 70.8676 52.1645 71.0965 49.8406C71.3306 47.4645 71.3334 44.4518 71.3334 40.1948V39.8049C71.3334 35.5479 71.3306 32.5352 71.0965 30.1591C71.0034 29.2136 70.8761 28.404 70.7078 27.691L59.6667 33.2116V43.3332C59.6667 44.7139 58.5474 45.8332 57.1667 45.8332C55.786 45.8332 54.6667 44.7139 54.6667 43.3332V35.7116L43.0001 41.5449V70.4181Z" fill="#575F67"/>
</svg>
