<svg width="40" height="40" viewBox="0 0 40 40" fill="none" xmlns="http://www.w3.org/2000/svg">
<path fill-rule="evenodd" clip-rule="evenodd" d="M12.9166 9.3633C12.9166 7.1951 10.6348 5.78491 8.69555 6.75455L5.36221 8.42122C4.37409 8.91528 3.74992 9.92522 3.74992 11.03V17.0832H3.33325C2.6429 17.0832 2.08325 17.6429 2.08325 18.3332V28.3332C2.08325 31.785 4.88147 34.5832 8.33325 34.5832C11.785 34.5832 14.5833 31.785 14.5833 28.3332V18.3332C14.5833 17.6429 14.0236 17.0832 13.3333 17.0832H12.9166V9.3633ZM4.58325 19.5832H12.0833V28.3332C12.0833 30.4043 10.4043 32.0832 8.33325 32.0832C6.26218 32.0832 4.58325 30.4043 4.58325 28.3332V19.5832ZM10.4166 17.0832V9.3633C10.4166 9.05356 10.0906 8.8521 9.81358 8.99062L6.48025 10.6573C6.33909 10.7279 6.24992 10.8721 6.24992 11.03V17.0832H10.4166Z" fill="white"/>
<path fill-rule="evenodd" clip-rule="evenodd" d="M27.4999 7.08323C21.747 7.08323 17.0833 11.7469 17.0833 17.4999C17.0833 22.8298 21.0863 27.2248 26.2499 27.8423V32.0832H22.4999C21.8096 32.0832 21.2499 32.6429 21.2499 33.3332C21.2499 34.0236 21.8096 34.5832 22.4999 34.5832H32.4999C33.1903 34.5832 33.7499 34.0236 33.7499 33.3332C33.7499 32.6429 33.1903 32.0832 32.4999 32.0832H28.7499V27.8423C33.9135 27.2248 37.9166 22.8298 37.9166 17.4999C37.9166 11.7469 33.2529 7.08323 27.4999 7.08323ZM27.4999 25.4166C31.8722 25.4166 35.4166 21.8722 35.4166 17.4999C35.4166 13.1276 31.8722 9.58323 27.4999 9.58323C23.1277 9.58323 19.5833 13.1276 19.5833 17.4999C19.5833 21.8722 23.1277 25.4166 27.4999 25.4166Z" fill="white"/>
</svg>
