<svg width="17" height="17" viewBox="0 0 17 17" fill="none" xmlns="http://www.w3.org/2000/svg">
<path fill-rule="evenodd" clip-rule="evenodd" d="M4.69573 1.33301C4.70443 1.33301 4.71326 1.33301 4.72223 1.33301L12.3043 1.33301C12.4851 1.33299 12.6098 1.33297 12.72 1.34309C13.9455 1.45558 14.8874 2.46812 14.9907 3.70694C15 3.8193 15 3.94699 15 4.13917L15 14.0062C15 14.5208 14.6784 14.9098 14.2706 15.0524C13.8595 15.1962 13.3603 15.0875 13.0548 14.6601C13.0436 14.6446 13.0332 14.6372 13.0257 14.6334C13.0175 14.6293 13.0088 14.6273 13 14.6273C12.9912 14.6273 12.9825 14.6293 12.9743 14.6334C12.9668 14.6372 12.9564 14.6446 12.9452 14.6601L12.6568 15.0637C12.0823 15.8672 10.9177 15.8672 10.3432 15.0637C10.1677 14.8181 9.83234 14.8181 9.65676 15.0637C9.08234 15.8672 7.91767 15.8672 7.34324 15.0637C7.16767 14.8181 6.83234 14.8181 6.65676 15.0637C6.08234 15.8672 4.91767 15.8672 4.34324 15.0637L4.05478 14.6601C4.04364 14.6446 4.03321 14.6372 4.02571 14.6334C4.01754 14.6293 4.0088 14.6273 4 14.6273C3.99121 14.6273 3.98247 14.6293 3.9743 14.6334C3.9668 14.6372 3.95636 14.6446 3.94522 14.6601C3.63972 15.0875 3.14049 15.1962 2.72943 15.0524C2.32158 14.9098 2 14.5208 2 14.0062V4.16452C2 4.15595 2 4.1475 2 4.13917C1.99998 3.947 1.99997 3.8193 2.00934 3.70694C2.11265 2.46812 3.05452 1.45558 4.27999 1.34309C4.39022 1.33297 4.51491 1.33299 4.69573 1.33301ZM4.72223 2.33301C4.50478 2.33301 4.42983 2.33354 4.37139 2.3389C3.66307 2.40392 3.07177 2.99997 3.00588 3.79004C3.00044 3.85534 3 3.93793 3 4.16452V14.0062C3 14.0469 3.01118 14.0678 3.01919 14.0788C3.02899 14.0922 3.04327 14.1028 3.05955 14.1085C3.0758 14.1141 3.08809 14.113 3.09482 14.1111C3.0982 14.1101 3.11214 14.106 3.13171 14.0786C3.5619 13.4768 4.43811 13.4768 4.8683 14.0786L5.15676 14.4821C5.33234 14.7277 5.66767 14.7277 5.84324 14.4821C6.41767 13.6786 7.58234 13.6786 8.15676 14.4821C8.33234 14.7277 8.66767 14.7277 8.84324 14.4821C9.41767 13.6786 10.5823 13.6786 11.1568 14.4821C11.3323 14.7277 11.6677 14.7277 11.8432 14.4821L12.1317 14.0786C12.5619 13.4768 13.4381 13.4768 13.8683 14.0786C13.8879 14.106 13.9017 14.11 13.9051 14.111C13.9118 14.113 13.9242 14.1141 13.9405 14.1085C13.9567 14.1028 13.971 14.0922 13.9808 14.0788C13.9888 14.0678 14 14.0469 14 14.0062V4.16452C14 3.93793 13.9996 3.85534 13.9941 3.79004C13.9282 2.99997 13.3369 2.40392 12.6286 2.3389C12.5702 2.33354 12.4952 2.33301 12.2778 2.33301H4.72223ZM6.81313 5.47946C7.00839 5.2842 7.32497 5.2842 7.52023 5.47946L8.50002 6.45924L9.47979 5.47947C9.67506 5.28421 9.99164 5.28421 10.1869 5.47947C10.3822 5.67473 10.3822 5.99131 10.1869 6.18658L9.20713 7.16635L10.1869 8.14612C10.3822 8.34138 10.3822 8.65796 10.1869 8.85322C9.99163 9.04848 9.67505 9.04848 9.47978 8.85322L8.50002 7.87346L7.52025 8.85323C7.32498 9.04849 7.0084 9.04849 6.81314 8.85323C6.61788 8.65797 6.61788 8.34139 6.81314 8.14613L7.79291 7.16635L6.81313 6.18657C6.61787 5.9913 6.61787 5.67472 6.81313 5.47946ZM5 10.833C5 10.5569 5.22386 10.333 5.5 10.333H11.5C11.7761 10.333 12 10.5569 12 10.833C12 11.1092 11.7761 11.333 11.5 11.333H5.5C5.22386 11.333 5 11.1092 5 10.833Z" fill="white"/>
</svg>
