<svg width="17" height="17" viewBox="0 0 17 17" fill="none" xmlns="http://www.w3.org/2000/svg">
<path fill-rule="evenodd" clip-rule="evenodd" d="M7.12897 2.66699H9.87086C11.096 2.66698 12.0665 2.66697 12.8259 2.76908C13.6075 2.87417 14.2402 3.09558 14.7391 3.59449C15.238 4.0934 15.4594 4.72603 15.5645 5.50764C15.6248 5.95622 15.6495 6.47839 15.6596 7.08318C15.6642 7.11043 15.6666 7.13843 15.6666 7.16699C15.6666 7.19049 15.665 7.21362 15.6618 7.23626C15.6666 7.61341 15.6666 8.02155 15.6666 8.46272V8.50033C15.6666 8.77647 15.4427 9.00033 15.1666 9.00033C14.8904 9.00033 14.6666 8.77647 14.6666 8.50033C14.6666 8.20306 14.6665 7.92592 14.6653 7.66699H2.33458C2.33331 7.92592 2.33325 8.20306 2.33325 8.50033C2.33325 9.77154 2.33431 10.6747 2.42642 11.3598C2.5166 12.0305 2.68571 12.4169 2.96785 12.6991C3.24999 12.9812 3.63643 13.1503 4.30715 13.2405C4.99226 13.3326 5.89537 13.3337 7.16659 13.3337H9.83325C10.1094 13.3337 10.3333 13.5575 10.3333 13.8337C10.3333 14.1098 10.1094 14.3337 9.83325 14.3337H7.12898C5.9038 14.3337 4.93338 14.3337 4.1739 14.2316C3.39229 14.1265 2.75966 13.9051 2.26075 13.4062C1.76184 12.9073 1.54043 12.2746 1.43534 11.493C1.33323 10.7335 1.33324 9.76311 1.33325 8.53794V8.46271C1.33325 8.02154 1.33324 7.6134 1.33801 7.23625C1.33487 7.21361 1.33325 7.19049 1.33325 7.16699C1.33325 7.13844 1.33565 7.11044 1.34024 7.08319C1.35035 6.4784 1.37503 5.95623 1.43534 5.50764C1.54043 4.72603 1.76184 4.0934 2.26075 3.59449C2.75966 3.09558 3.39229 2.87417 4.1739 2.76908C4.93338 2.66697 5.9038 2.66698 7.12897 2.66699ZM2.35064 6.66699H14.6492C14.6362 6.27584 14.6133 5.93788 14.5734 5.64089C14.4832 4.97017 14.3141 4.58373 14.032 4.30159C13.7498 4.01945 13.3634 3.85034 12.6927 3.76017C12.0076 3.66805 11.1045 3.66699 9.83325 3.66699H7.16659C5.89537 3.66699 4.99226 3.66805 4.30715 3.76017C3.63643 3.85034 3.24999 4.01945 2.96785 4.30159C2.68571 4.58373 2.5166 4.97017 2.42642 5.64089C2.3865 5.93788 2.36368 6.27584 2.35064 6.66699ZM12.813 9.48011C13.0083 9.28484 13.3249 9.28484 13.5201 9.48011L14.8535 10.8134C15.0487 11.0087 15.0487 11.3253 14.8535 11.5205C14.6582 11.7158 14.3416 11.7158 14.1464 11.5205L13.6666 11.0408V13.8337C13.6666 14.1098 13.4427 14.3337 13.1666 14.3337C12.8904 14.3337 12.6666 14.1098 12.6666 13.8337V11.0408L12.1868 11.5205C11.9915 11.7158 11.675 11.7158 11.4797 11.5205C11.2844 11.3253 11.2844 11.0087 11.4797 10.8134L12.813 9.48011ZM3.99992 11.167C3.99992 10.8909 4.22378 10.667 4.49992 10.667H7.16659C7.44273 10.667 7.66659 10.8909 7.66659 11.167C7.66659 11.4431 7.44273 11.667 7.16659 11.667H4.49992C4.22378 11.667 3.99992 11.4431 3.99992 11.167ZM8.33325 11.167C8.33325 10.8909 8.55711 10.667 8.83325 10.667H9.16659C9.44273 10.667 9.66659 10.8909 9.66659 11.167C9.66659 11.4431 9.44273 11.667 9.16659 11.667H8.83325C8.55711 11.667 8.33325 11.4431 8.33325 11.167Z" fill="white"/>
</svg>
