<svg width="16" height="17" viewBox="0 0 16 17" fill="none" xmlns="http://www.w3.org/2000/svg">
<path fill-rule="evenodd" clip-rule="evenodd" d="M6.62897 2.66699H9.37086C10.596 2.66698 11.5665 2.66697 12.3259 2.76908C13.1075 2.87417 13.7402 3.09558 14.2391 3.59449C14.6911 4.04654 14.9159 4.60908 15.0322 5.29441C15.1171 5.79471 15.1481 6.3867 15.1596 7.08324C15.1642 7.11047 15.1666 7.13845 15.1666 7.16699C15.1666 7.19053 15.165 7.21368 15.1618 7.23635C15.1642 7.42729 15.1654 7.62582 15.166 7.8322C15.1668 8.10834 14.9436 8.33285 14.6674 8.33366C14.3913 8.33447 14.1668 8.11126 14.166 7.83512C14.1658 7.77822 14.1656 7.72218 14.1653 7.66699H1.83458C1.83331 7.92592 1.83325 8.20306 1.83325 8.50033C1.83325 9.77154 1.83431 10.6747 1.92642 11.3598C2.0166 12.0305 2.18571 12.4169 2.46785 12.6991C2.74999 12.9812 3.13643 13.1503 3.80715 13.2405C4.49226 13.3326 5.39537 13.3337 6.66659 13.3337H7.66659C7.94273 13.3337 8.16659 13.5575 8.16659 13.8337C8.16659 14.1098 7.94273 14.3337 7.66659 14.3337H6.62898C5.4038 14.3337 4.43338 14.3337 3.6739 14.2316C2.89229 14.1265 2.25966 13.9051 1.76075 13.4062C1.26184 12.9073 1.04043 12.2746 0.935342 11.493C0.833233 10.7335 0.833242 9.76311 0.833252 8.53794V8.46271C0.833248 8.02154 0.833245 7.6134 0.838009 7.23625C0.834873 7.21361 0.833252 7.19049 0.833252 7.16699C0.833252 7.13844 0.835647 7.11044 0.840245 7.08319C0.850347 6.4784 0.875032 5.95623 0.935342 5.50764C1.04043 4.72603 1.26184 4.0934 1.76075 3.59449C2.25966 3.09558 2.89229 2.87417 3.6739 2.76908C4.43338 2.66697 5.4038 2.66698 6.62897 2.66699ZM1.85064 6.66699H14.1491C14.1332 6.19045 14.103 5.79619 14.0463 5.46169C13.9511 4.90044 13.7887 4.55827 13.532 4.30159C13.2498 4.01945 12.8634 3.85034 12.1927 3.76017C11.5076 3.66805 10.6045 3.66699 9.33325 3.66699H6.66659C5.39537 3.66699 4.49226 3.66805 3.80715 3.76017C3.13643 3.85034 2.74999 4.01945 2.46785 4.30159C2.18571 4.58373 2.0166 4.97017 1.92642 5.64089C1.8865 5.93788 1.86368 6.27584 1.85064 6.66699ZM10.3333 9.33366C10.6094 9.33366 10.8333 9.55752 10.8333 9.83366V12.6266L11.313 12.1468C11.5083 11.9515 11.8249 11.9515 12.0201 12.1468C12.2154 12.342 12.2154 12.6586 12.0201 12.8539L10.6868 14.1872C10.4915 14.3825 10.175 14.3825 9.9797 14.1872L8.64637 12.8539C8.4511 12.6586 8.4511 12.342 8.64637 12.1468C8.84163 11.9515 9.15821 11.9515 9.35347 12.1468L9.83325 12.6266V9.83366C9.83325 9.55752 10.0571 9.33366 10.3333 9.33366ZM12.9797 9.48011C13.175 9.28484 13.4915 9.28484 13.6868 9.48011L15.0201 10.8134C15.2154 11.0087 15.2154 11.3253 15.0201 11.5205C14.8249 11.7158 14.5083 11.7158 14.313 11.5205L13.8333 11.0408V13.8337C13.8333 14.1098 13.6094 14.3337 13.3333 14.3337C13.0571 14.3337 12.8333 14.1098 12.8333 13.8337V11.0408L12.3535 11.5205C12.1582 11.7158 11.8416 11.7158 11.6464 11.5205C11.4511 11.3253 11.4511 11.0087 11.6464 10.8134L12.9797 9.48011ZM3.49992 11.167C3.49992 10.8909 3.72378 10.667 3.99992 10.667H6.66659C6.94273 10.667 7.16659 10.8909 7.16659 11.167C7.16659 11.4431 6.94273 11.667 6.66659 11.667H3.99992C3.72378 11.667 3.49992 11.4431 3.49992 11.167Z" fill="white"/>
</svg>
