<svg width="16" height="17" viewBox="0 0 16 17" fill="none" xmlns="http://www.w3.org/2000/svg">
<path fill-rule="evenodd" clip-rule="evenodd" d="M6.62922 2.66699H9.37111C10.5963 2.66698 11.5667 2.66697 12.3262 2.76908C13.1078 2.87417 13.7404 3.09558 14.2393 3.59449C14.7382 4.0934 14.9597 4.72603 15.0647 5.50764C15.125 5.95622 15.1497 6.47839 15.1598 7.08318C15.1644 7.11043 15.1668 7.13843 15.1668 7.16699C15.1668 7.19049 15.1652 7.21362 15.1621 7.23626C15.1668 7.61341 15.1668 8.02155 15.1668 8.46272V8.50033C15.1668 8.77647 14.943 9.00033 14.6668 9.00033C14.3907 9.00033 14.1668 8.77647 14.1668 8.50033C14.1668 8.20306 14.1668 7.92592 14.1655 7.66699H1.83482C1.83355 7.92592 1.8335 8.20306 1.8335 8.50033C1.8335 9.77154 1.83456 10.6747 1.92667 11.3598C2.01685 12.0305 2.18596 12.4169 2.4681 12.6991C2.75024 12.9812 3.13667 13.1503 3.8074 13.2405C4.4925 13.3326 5.39562 13.3337 6.66683 13.3337H9.3335C9.60964 13.3337 9.8335 13.5575 9.8335 13.8337C9.8335 14.1098 9.60964 14.3337 9.3335 14.3337H6.62922C5.40405 14.3337 4.43362 14.3337 3.67415 14.2316C2.89253 14.1265 2.2599 13.9051 1.76099 13.4062C1.26208 12.9073 1.04067 12.2746 0.935586 11.493C0.833477 10.7335 0.833486 9.76311 0.833496 8.53794V8.46271C0.833492 8.02154 0.833489 7.6134 0.838254 7.23625C0.835117 7.21361 0.833497 7.19049 0.833497 7.16699C0.833497 7.13844 0.835891 7.11044 0.840489 7.08319C0.850591 6.4784 0.875276 5.95623 0.935586 5.50764C1.04067 4.72603 1.26208 4.0934 1.76099 3.59449C2.2599 3.09558 2.89253 2.87417 3.67415 2.76908C4.43362 2.66697 5.40405 2.66698 6.62922 2.66699ZM1.85088 6.66699H14.1494C14.1364 6.27584 14.1136 5.93788 14.0737 5.64089C13.9835 4.97017 13.8144 4.58373 13.5322 4.30159C13.2501 4.01945 12.8637 3.85034 12.1929 3.76017C11.5078 3.66805 10.6047 3.66699 9.3335 3.66699H6.66683C5.39562 3.66699 4.49251 3.66805 3.8074 3.76017C3.13667 3.85034 2.75024 4.01945 2.4681 4.30159C2.18596 4.58373 2.01685 4.97017 1.92667 5.64089C1.88674 5.93788 1.86392 6.27584 1.85088 6.66699ZM12.6668 9.33366C12.943 9.33366 13.1668 9.55752 13.1668 9.83366V12.6266L13.6466 12.1468C13.8419 11.9515 14.1585 11.9515 14.3537 12.1468C14.549 12.342 14.549 12.6586 14.3537 12.8539L13.0204 14.1872C12.8251 14.3825 12.5085 14.3825 12.3133 14.1872L10.9799 12.8539C10.7847 12.6586 10.7847 12.342 10.9799 12.1468C11.1752 11.9515 11.4918 11.9515 11.687 12.1468L12.1668 12.6266V9.83366C12.1668 9.55752 12.3907 9.33366 12.6668 9.33366ZM3.50016 11.167C3.50016 10.8909 3.72402 10.667 4.00016 10.667H6.66683C6.94297 10.667 7.16683 10.8909 7.16683 11.167C7.16683 11.4431 6.94297 11.667 6.66683 11.667H4.00016C3.72402 11.667 3.50016 11.4431 3.50016 11.167ZM7.8335 11.167C7.8335 10.8909 8.05735 10.667 8.3335 10.667H8.66683C8.94297 10.667 9.16683 10.8909 9.16683 11.167C9.16683 11.4431 8.94297 11.667 8.66683 11.667H8.3335C8.05735 11.667 7.8335 11.4431 7.8335 11.167Z" fill="white"/>
</svg>
