<svg width="17" height="17" viewBox="0 0 17 17" fill="none" xmlns="http://www.w3.org/2000/svg">
<path fill-rule="evenodd" clip-rule="evenodd" d="M7.12307 2.00001H9.37737C9.52163 1.99992 9.64731 1.99984 9.76599 2.01879C10.2349 2.09366 10.6406 2.3861 10.8599 2.80723C10.9154 2.91382 10.9551 3.03307 11.0006 3.16996L11.075 3.39323C11.0876 3.43102 11.0912 3.44172 11.0943 3.45014C11.211 3.77289 11.5137 3.99106 11.8568 3.99976C11.8658 3.99999 11.8769 4.00003 11.9169 4.00003H13.9169C14.193 4.00003 14.4169 4.22388 14.4169 4.50003C14.4169 4.77617 14.193 5.00003 13.9169 5.00003H2.5835C2.30735 5.00003 2.0835 4.77617 2.0835 4.50003C2.0835 4.22388 2.30735 4.00003 2.5835 4.00003H4.58355C4.62358 4.00003 4.63463 3.99999 4.64365 3.99976C4.98675 3.99106 5.28943 3.7729 5.40618 3.45016C5.40925 3.44168 5.41278 3.43121 5.42544 3.39323L5.49984 3.16998C5.54537 3.0331 5.58505 2.91382 5.64055 2.80723C5.85985 2.3861 6.26558 2.09366 6.73445 2.01879C6.85313 1.99984 6.97881 1.99992 7.12307 2.00001ZM6.2556 4.00003C6.28994 3.93268 6.32037 3.86269 6.34655 3.79032C6.3545 3.76834 6.36229 3.74495 6.37231 3.71489L6.43885 3.51528C6.49963 3.33294 6.51362 3.29575 6.5275 3.26909C6.6006 3.12872 6.73585 3.03124 6.89213 3.00628C6.92182 3.00154 6.96152 3.00003 7.15373 3.00003H9.34671C9.53892 3.00003 9.57862 3.00154 9.6083 3.00628C9.76459 3.03124 9.89984 3.12872 9.97293 3.26909C9.98682 3.29575 10.0008 3.33294 10.0616 3.51528L10.1281 3.71477L10.1539 3.79033C10.1801 3.8627 10.2105 3.93268 10.2448 4.00003H6.2556Z" fill="#FA1717"/>
<path d="M4.19356 6.13343C4.17519 5.8579 3.93693 5.64943 3.6614 5.6678C3.38587 5.68617 3.1774 5.92442 3.19577 6.19995L3.50474 10.8344C3.56173 11.6896 3.60777 12.3804 3.71576 12.9224C3.82802 13.486 4.01897 13.9567 4.41336 14.3256C4.80776 14.6946 5.29013 14.8538 5.85989 14.9284C6.40791 15 7.10019 15 7.95723 15H8.54316C9.4002 15 10.0925 15 10.6405 14.9284C11.2103 14.8538 11.6927 14.6946 12.0871 14.3256C12.4815 13.9567 12.6724 13.486 12.7847 12.9224C12.8927 12.3804 12.9387 11.6896 12.9957 10.8345L13.3047 6.19995C13.323 5.92442 13.1146 5.68617 12.839 5.6678C12.5635 5.64943 12.3253 5.8579 12.3069 6.13343L12.0003 10.7328C11.9404 11.6314 11.8977 12.2566 11.804 12.727C11.7131 13.1833 11.5862 13.4249 11.4039 13.5954C11.2216 13.7659 10.9722 13.8765 10.5108 13.9368C10.0352 13.999 9.40857 14 8.50801 14H7.99243C7.09187 14 6.4652 13.999 5.9896 13.9368C5.52826 13.8765 5.27882 13.7659 5.09655 13.5954C4.91427 13.4249 4.78738 13.1833 4.69648 12.727C4.60277 12.2566 4.56009 11.6314 4.50018 10.7328L4.19356 6.13343Z" fill="#FA1717"/>
<path d="M6.53381 7.33584C6.80858 7.30836 7.0536 7.50883 7.08108 7.78361L7.41441 11.1169C7.44189 11.3917 7.24142 11.6367 6.96664 11.6642C6.69187 11.6917 6.44685 11.4912 6.41937 11.2164L6.08604 7.88311C6.05856 7.60834 6.25903 7.36332 6.53381 7.33584Z" fill="#FA1717"/>
<path d="M9.96664 7.33584C10.2414 7.36332 10.4419 7.60834 10.4144 7.88311L10.0811 11.2164C10.0536 11.4912 9.80858 11.6917 9.53381 11.6642C9.25903 11.6367 9.05856 11.3917 9.08604 11.1169L9.41937 7.78361C9.44685 7.50883 9.69187 7.30836 9.96664 7.33584Z" fill="#FA1717"/>
</svg>
