<svg width="17" height="17" viewBox="0 0 17 17" fill="none" xmlns="http://www.w3.org/2000/svg">
<path fill-rule="evenodd" clip-rule="evenodd" d="M8.91363 2.34171C8.82444 2.33392 8.73541 2.3335 8.49992 2.3335C6.91444 2.3335 5.77562 2.33456 4.90897 2.45108C4.0567 2.56566 3.54289 2.78359 3.16312 3.16336C2.78335 3.54313 2.56542 4.05695 2.45083 4.90922C2.33431 5.77587 2.33325 6.91468 2.33325 8.50016C2.33325 10.0856 2.33431 11.2245 2.45083 12.0911C2.56542 12.9434 2.78335 13.4572 3.16312 13.837C3.50545 14.1793 3.9567 14.3901 4.66659 14.5123L4.66658 14.4655C4.66657 13.8665 4.66655 13.367 4.71986 12.9705C4.77613 12.552 4.89991 12.1741 5.20356 11.8705C5.5072 11.5668 5.88507 11.443 6.3036 11.3868C6.70012 11.3335 7.1996 11.3335 7.79859 11.3335H9.20125C9.80024 11.3335 10.2997 11.3335 10.6962 11.3868C11.1148 11.443 11.4926 11.5668 11.7963 11.8705C12.0999 12.1741 12.2237 12.552 12.28 12.9705C12.3333 13.367 12.3333 13.8665 12.3333 14.4655L12.3333 14.5123C13.0431 14.3901 13.4944 14.1793 13.8367 13.837C14.2165 13.4572 14.4344 12.9434 14.549 12.0911C14.6655 11.2245 14.6666 10.0856 14.6666 8.50016C14.6666 8.26468 14.6662 8.17564 14.6584 8.08645C14.6202 7.64919 14.4416 7.21804 14.1594 6.88186C14.1019 6.81335 14.0375 6.7483 13.8667 6.57757L10.4225 3.13334C10.2518 2.96262 10.1867 2.89817 10.1182 2.84067C9.78205 2.55847 9.35089 2.37988 8.91363 2.34171ZM11.3333 14.6202V14.5002C11.3333 13.8575 11.3322 13.4258 11.2889 13.1038C11.2475 12.7961 11.1761 12.6645 11.0892 12.5776C11.0023 12.4907 10.8706 12.4192 10.563 12.3779C10.241 12.3346 9.80926 12.3335 9.16659 12.3335H7.83325C7.19058 12.3335 6.75887 12.3346 6.43685 12.3779C6.12921 12.4192 5.99754 12.4907 5.91066 12.5776C5.82379 12.6645 5.7523 12.7961 5.71094 13.1038C5.66765 13.4258 5.66659 13.8575 5.66659 14.5002V14.6202C6.41715 14.6663 7.33874 14.6668 8.49992 14.6668C9.6611 14.6668 10.5827 14.6663 11.3333 14.6202ZM8.52093 1.3335C8.72865 1.33348 8.86291 1.33348 9.0006 1.3455C9.64243 1.40153 10.2677 1.66052 10.7612 2.07474C10.867 2.16361 10.9639 2.26053 11.1141 2.41074L11.1296 2.42624L14.5893 5.88591C14.7395 6.03614 14.8365 6.13305 14.9253 6.23892C15.3396 6.73238 15.5986 7.35766 15.6546 7.99949C15.6666 8.13717 15.6666 8.27142 15.6666 8.47913V8.53841C15.6666 10.0773 15.6666 11.2834 15.5401 12.2244C15.4106 13.1875 15.1404 13.9475 14.5438 14.5441C13.9473 15.1406 13.1873 15.4108 12.2241 15.5403C11.2831 15.6668 10.0771 15.6668 8.53817 15.6668H8.46167C6.92274 15.6668 5.71671 15.6668 4.77572 15.5403C3.81257 15.4108 3.05255 15.1406 2.45601 14.5441C1.85947 13.9475 1.58924 13.1875 1.45975 12.2244C1.33324 11.2834 1.33324 10.0773 1.33325 8.53842V8.46191C1.33324 6.92298 1.33324 5.71696 1.45975 4.77597C1.58924 3.81281 1.85947 3.0528 2.45601 2.45626C3.05255 1.85972 3.81257 1.58949 4.77572 1.46C5.71671 1.33348 6.92274 1.33349 8.46167 1.3335L8.52093 1.3335ZM4.66659 5.8335C4.66659 5.55736 4.89044 5.3335 5.16659 5.3335H9.16659C9.44273 5.3335 9.66659 5.55736 9.66659 5.8335C9.66659 6.10964 9.44273 6.3335 9.16659 6.3335H5.16659C4.89044 6.3335 4.66659 6.10964 4.66659 5.8335Z" fill="white"/>
</svg>
