<svg width="41" height="40" viewBox="0 0 41 40" fill="none" xmlns="http://www.w3.org/2000/svg">
<path d="M21.9168 20.0002C21.9168 19.3098 21.3572 18.7502 20.6668 18.7502C19.9765 18.7502 19.4168 19.3098 19.4168 20.0002V22.0835H17.3335C16.6431 22.0835 16.0835 22.6431 16.0835 23.3335C16.0835 24.0239 16.6431 24.5835 17.3335 24.5835H19.4168V26.6668C19.4168 27.3572 19.9765 27.9168 20.6668 27.9168C21.3572 27.9168 21.9168 27.3572 21.9168 26.6668V24.5835H24.0002C24.6905 24.5835 25.2502 24.0239 25.2502 23.3335C25.2502 22.6431 24.6905 22.0835 24.0002 22.0835H21.9168V20.0002Z" fill="white"/>
<path fill-rule="evenodd" clip-rule="evenodd" d="M13.1306 2.0835H28.2031C28.5602 2.08348 28.8883 2.08346 29.1638 2.10226C29.4599 2.12246 29.7855 2.16848 30.1163 2.30552C30.831 2.60154 31.3988 3.16934 31.6948 3.88401C31.8318 4.21485 31.8779 4.54041 31.8981 4.83649C31.9169 5.11201 31.9169 5.44007 31.9168 5.79718V5.86977C31.9169 6.22688 31.9169 6.55499 31.8981 6.83052C31.8779 7.12659 31.8318 7.45216 31.6948 7.78299C31.3988 8.49766 30.831 9.06546 30.1163 9.36148C29.822 9.48339 29.5319 9.53327 29.2629 9.55702L32.3146 12.0275C34.1714 13.5306 35.2502 15.7917 35.2502 18.1806V29.2751C35.2502 31.1113 34.6119 32.8903 33.4446 34.3077L32.8475 35.0328C31.3436 36.8589 29.102 37.9168 26.7364 37.9168L15.5035 37.9168C14.639 37.9169 14.083 37.917 13.5461 37.8433C11.957 37.6252 10.4715 36.9294 9.28659 35.8482C8.8863 35.483 8.53036 35.0558 7.97702 34.3916L7.91841 34.3213C6.73279 32.8986 6.0835 31.1052 6.0835 29.2532V18.2043C6.0835 15.7994 7.17671 13.5248 9.05466 12.0225L12.1303 9.56191C11.8449 9.54029 11.5335 9.49246 11.2173 9.36148C10.5027 9.06546 9.93487 8.49766 9.63885 7.78299C9.50181 7.45216 9.45579 7.12659 9.43559 6.83052C9.41679 6.55497 9.41681 6.22689 9.41683 5.86977V5.79724C9.41681 5.44012 9.41679 5.11203 9.43559 4.83649C9.45579 4.54041 9.50181 4.21485 9.63885 3.88401C9.93487 3.16934 10.5027 2.60154 11.2173 2.30552C11.5482 2.16848 11.8737 2.12246 12.1698 2.10226C12.4453 2.08346 12.7735 2.08348 13.1306 2.0835ZM18.0054 9.5835H23.4047C24.6592 9.5835 24.9894 9.60006 25.28 9.70294C25.5707 9.80583 25.8377 10.0007 26.8128 10.7901L30.7417 13.9706C31.247 14.3796 31.6681 14.8708 31.992 15.4168H9.35578C9.68308 14.8714 10.1077 14.3816 10.6164 13.9746L14.6216 10.7705C15.5924 9.99384 15.8581 9.80211 16.1465 9.70094C16.4349 9.59978 16.7622 9.5835 18.0054 9.5835ZM8.59112 17.9168H32.7437C32.748 18.0045 32.7502 18.0924 32.7502 18.1806V28.7502H8.5835V18.2043C8.5835 18.1082 8.58605 18.0123 8.59112 17.9168ZM8.96506 31.2502H32.3772C32.1705 31.7782 31.8806 32.2743 31.5148 32.7185L30.9176 33.4436C29.8887 34.693 28.3549 35.4168 26.7364 35.4168H15.595C14.6086 35.4168 14.2328 35.4141 13.8861 35.3665C12.7988 35.2173 11.7824 34.7412 10.9717 34.0015C10.7131 33.7656 10.4705 33.4786 9.83896 32.7208C9.46881 32.2767 9.17506 31.7797 8.96506 31.2502ZM28.1668 7.0835H23.9032C23.7968 7.08322 23.688 7.08331 23.5767 7.08341L17.8349 7.08341C17.7246 7.08332 17.6169 7.08323 17.5114 7.0835H13.1668C12.7614 7.0835 12.52 7.08282 12.34 7.07054C12.2286 7.06294 12.1813 7.05278 12.169 7.04966C12.071 7.00753 11.9928 6.92937 11.9507 6.83132C11.9476 6.81906 11.9374 6.77172 11.9298 6.66034C11.9175 6.48033 11.9168 6.23889 11.9168 5.8335C11.9168 5.42811 11.9175 5.18667 11.9298 5.00666C11.9374 4.89528 11.9476 4.84794 11.9507 4.83568C11.9928 4.73763 12.071 4.65947 12.169 4.61734C12.1813 4.61423 12.2286 4.60406 12.34 4.59646C12.52 4.58418 12.7614 4.5835 13.1668 4.5835H28.1668C28.5722 4.5835 28.8137 4.58418 28.9937 4.59646C29.105 4.60406 29.1524 4.61423 29.1646 4.61734C29.2627 4.65947 29.3409 4.73763 29.383 4.83569C29.3861 4.84795 29.3963 4.89529 29.4039 5.00666C29.4162 5.18667 29.4168 5.42811 29.4168 5.8335C29.4168 6.23889 29.4162 6.48033 29.4039 6.66034C29.3963 6.77172 29.3861 6.81906 29.383 6.83132C29.3409 6.92937 29.2627 7.00753 29.1646 7.04966C29.1524 7.05278 29.105 7.06294 28.9937 7.07054C28.8137 7.08282 28.5722 7.0835 28.1668 7.0835Z" fill="white"/>
</svg>
