<svg width="41" height="40" viewBox="0 0 41 40" fill="none" xmlns="http://www.w3.org/2000/svg">
<path fill-rule="evenodd" clip-rule="evenodd" d="M5.20613 17.0108C5.0161 17.9779 4.9165 18.9774 4.9165 20.0002C4.9165 20.3775 4.93006 20.7518 4.95672 21.1224C4.99176 21.1509 5.02863 21.1806 5.06723 21.2115C5.43413 21.5049 5.9514 21.895 6.55296 22.2831C7.8155 23.0975 9.21948 23.7502 10.3332 23.7502C11.0592 23.7502 11.9395 23.469 12.8631 23.004C13.4243 22.7214 13.9607 22.3919 14.4343 22.0707C14.2069 21.4227 14.0832 20.7259 14.0832 20.0002C14.0832 16.5484 16.8814 13.7502 20.3332 13.7502C23.785 13.7502 26.5832 16.5484 26.5832 20.0002C26.5832 21.266 26.2069 22.4439 25.56 23.4281C25.6392 23.4711 25.7222 23.516 25.8092 23.563C25.8421 23.5808 25.8756 23.5989 25.9097 23.6173C26.397 23.8807 27.0215 24.2211 27.5433 24.6446C28.6445 24.4639 29.7703 24.6323 30.6932 25.2165C31.0154 24.6166 31.4811 24.0773 32.0544 23.6534C33.0583 22.9109 34.3328 22.5797 35.4987 22.7874C35.6636 21.8841 35.7498 20.9526 35.7498 20.0002C35.7498 19.2444 35.6954 18.5013 35.5904 17.7746L32.8254 20.2097C32.3073 20.6659 31.5174 20.6158 31.0612 20.0978C30.6049 19.5797 30.655 18.7898 31.1731 18.3335L33.9699 15.8705C34.2938 15.5852 34.724 15.4978 35.1125 15.5991C34.7272 14.3034 34.1762 13.0789 33.484 11.9505L32.8837 12.5507C32.3956 13.0389 31.6041 13.0389 31.116 12.5507C30.6278 12.0626 30.6278 11.2711 31.116 10.7829L31.9892 9.90968C29.1624 6.64718 24.9888 4.5835 20.3332 4.5835C17.383 4.5835 14.6265 5.41214 12.2835 6.84936L12.8837 7.44961C13.3719 7.93777 13.3719 8.72922 12.8837 9.21738C12.3956 9.70553 11.6041 9.70553 11.116 9.21738L10.2427 8.34412C8.56718 9.79585 7.20786 11.6028 6.28187 13.6479C6.96637 13.6157 7.55015 14.1414 7.58835 14.827L7.71945 17.1804C7.75785 17.8696 7.2302 18.4596 6.54091 18.498C5.85163 18.5364 5.26172 18.0087 5.22332 17.3194L5.20613 17.0108ZM24.849 25.8862C24.8071 25.8633 24.7644 25.84 24.7208 25.8165C24.6634 25.7855 24.6036 25.7534 24.5419 25.7203C24.2859 25.583 23.9969 25.4279 23.7131 25.2583C22.7386 25.886 21.5784 26.2502 20.3332 26.2502C18.507 26.2502 16.8638 25.467 15.7211 24.2182C15.2035 24.5637 14.6146 24.9211 13.9874 25.2369C12.9187 25.775 11.6271 26.2502 10.3332 26.2502C8.64556 26.2502 6.92229 25.4373 5.63183 24.6555C7.52015 30.6242 12.9429 35.0218 19.4436 35.3916C19.3601 34.0352 19.9499 32.6051 21.1632 31.7078C21.7394 31.2817 22.3906 30.9954 23.0564 30.8638C22.5728 29.0961 23.3759 27.1251 24.849 25.8862ZM2.4165 20.0002C2.4165 10.1051 10.4381 2.0835 20.3332 2.0835C30.2283 2.0835 38.2498 10.1051 38.2498 20.0002C38.2498 21.6853 38.0169 23.318 37.5806 24.867C37.4651 25.2771 37.1487 25.6001 36.7411 25.7241C36.3334 25.848 35.8908 25.7558 35.5665 25.4794C35.2096 25.1752 34.3687 25.0512 33.5409 25.6634C32.8538 26.1715 32.6318 26.8717 32.7083 27.3292C32.775 27.7276 32.645 28.1337 32.3594 28.4194L32.1903 28.5884C31.933 28.8457 31.5764 28.9781 31.2136 28.9511C30.8508 28.9241 30.5177 28.7403 30.3014 28.4478L29.744 27.694C29.2515 27.0281 27.9074 26.7203 26.6088 27.6806C25.3102 28.641 25.2109 30.0163 25.7033 30.6822L26.0121 31.0998C26.3801 31.5974 26.3286 32.2893 25.891 32.7269L25.5822 33.0357C25.2527 33.3652 24.7673 33.4841 24.3229 33.3441C23.8918 33.2084 23.2449 33.2777 22.6497 33.7179C21.8378 34.3183 21.7831 35.3983 22.1715 35.9236C22.446 36.2948 22.4936 36.787 22.2952 37.2039C22.0969 37.6208 21.6849 37.8944 21.2237 37.9155C21.0121 37.9252 20.7352 37.9215 20.529 37.9188C20.4513 37.9177 20.3835 37.9168 20.3332 37.9168C10.4381 37.9168 2.4165 29.8953 2.4165 20.0002ZM17.7826 5.78295C18.2708 5.29479 19.0622 5.29479 19.5504 5.78295L21.2171 7.44961C21.7052 7.93777 21.7052 8.72922 21.2171 9.21738C20.7289 9.70553 19.9374 9.70553 19.4493 9.21738L17.7826 7.55071C17.2945 7.06256 17.2945 6.2711 17.7826 5.78295ZM27.7498 7.3335C28.3021 7.74771 28.414 8.53121 27.9998 9.0835L25.4998 12.4168C25.0856 12.9691 24.3021 13.081 23.7498 12.6668C23.1976 12.2526 23.0856 11.4691 23.4998 10.9168L25.9998 7.5835C26.4141 7.03121 27.1976 6.91928 27.7498 7.3335ZM19.0406 11.3433C19.2193 12.0101 18.8235 12.6956 18.1567 12.8742L15.88 13.4843C15.2132 13.663 14.5277 13.2672 14.3491 12.6004C14.1704 11.9336 14.5661 11.2481 15.2329 11.0695L17.5096 10.4594C18.1765 10.2807 18.8619 10.6765 19.0406 11.3433ZM10.1613 11.9562C10.7897 11.6705 11.5308 11.9484 11.8165 12.5769L12.7919 14.7226C13.0775 15.3511 12.7997 16.0922 12.1712 16.3779C11.5427 16.6635 10.8016 16.3857 10.516 15.7572L9.54059 13.6115C9.25491 12.983 9.53279 12.2419 10.1613 11.9562ZM28.024 13.7125C28.7136 13.6801 29.2989 14.2129 29.3313 14.9025L29.442 17.2569C29.4744 17.9465 28.9417 18.5318 28.2521 18.5642C27.5625 18.5966 26.9772 18.0639 26.9448 17.3743L26.8341 15.0199C26.8017 14.3303 27.3344 13.745 28.024 13.7125ZM20.3332 16.2502C18.2621 16.2502 16.5832 17.9291 16.5832 20.0002C16.5832 22.0712 18.2621 23.7502 20.3332 23.7502C22.4042 23.7502 24.0832 22.0712 24.0832 20.0002C24.0832 17.9291 22.4042 16.2502 20.3332 16.2502ZM11.9048 18.1581C12.4618 18.5658 12.5829 19.348 12.1752 19.9051L10.7832 21.8071C10.3754 22.3642 9.59329 22.4853 9.0362 22.0776C8.47911 21.6698 8.35802 20.8877 8.76574 20.3306L10.1578 18.4286C10.5655 17.8715 11.3477 17.7504 11.9048 18.1581Z" fill="white"/>
</svg>
