<svg width="40" height="40" viewBox="0 0 40 40" fill="none" xmlns="http://www.w3.org/2000/svg">
<path fill-rule="evenodd" clip-rule="evenodd" d="M20.96 4.62935C20.7318 4.56821 20.4916 4.56821 20.2634 4.62935C20.1751 4.65301 20.0268 4.71569 19.7238 4.96834C19.4075 5.23203 19.0247 5.61313 18.4367 6.20118C17.8486 6.78923 17.4675 7.17202 17.2038 7.48828C16.9512 7.79129 16.8885 7.93963 16.8648 8.02796C16.8037 8.25611 16.8037 8.49634 16.8648 8.72449C16.8885 8.81282 16.9512 8.96117 17.2038 9.26418C17.4675 9.58043 17.8486 9.96322 18.4367 10.5513L29.4488 21.5634C30.0369 22.1515 30.4196 22.5326 30.7359 22.7963C31.0389 23.0489 31.1873 23.1116 31.2756 23.1353C31.5037 23.1964 31.744 23.1964 31.9721 23.1353C32.0604 23.1116 32.2088 23.0489 32.5118 22.7963C32.8281 22.5326 33.2108 22.1515 33.7989 21.5634C34.387 20.9754 34.768 20.5926 35.0317 20.2763C35.2844 19.9733 35.3471 19.825 35.3707 19.7366C35.4319 19.5085 35.4319 19.2683 35.3707 19.0401C35.3471 18.9518 35.2844 18.8034 35.0317 18.5004C34.768 18.1842 34.387 17.8014 33.7989 17.2133L32.5753 15.9898C31.7493 15.1637 31.7493 13.8245 32.5753 12.9984C33.1771 12.3966 33.5377 12.0323 33.7632 11.7367C33.867 11.6006 33.91 11.5192 33.9278 11.4766C33.9404 11.4463 33.9398 11.4377 33.9396 11.4355C33.9398 11.4334 33.9404 11.4241 33.9278 11.3938C33.91 11.3512 33.867 11.2697 33.7632 11.1336C33.5377 10.838 33.1771 10.4737 32.5753 9.8719L30.1282 7.42475C29.5264 6.82297 29.1621 6.46242 28.8665 6.23685C28.7304 6.13305 28.6489 6.09009 28.6063 6.07233C28.576 6.05969 28.5674 6.06031 28.5653 6.06046C28.5651 6.06047 28.5654 6.06046 28.5653 6.06046C28.564 6.06046 28.5562 6.05872 28.5235 6.07233C28.4809 6.09009 28.3994 6.13305 28.2634 6.23685C28.0152 6.42618 27.7187 6.7106 27.274 7.15293L30.0606 9.93949C30.5487 10.4276 30.5487 11.2191 30.0606 11.7073C29.5724 12.1954 28.781 12.1954 28.2928 11.7073L22.7868 6.20118C22.1987 5.61313 21.8159 5.23203 21.4997 4.96834C21.1966 4.7157 21.0483 4.65301 20.96 4.62935ZM25.5061 5.385L24.5163 4.39518C23.9772 3.85602 23.5144 3.39319 23.1006 3.04822C22.6639 2.68408 22.1905 2.37087 21.607 2.21453C20.955 2.03982 20.2684 2.03982 19.6164 2.21453C19.0329 2.37087 18.5595 2.68408 18.1228 3.04822C17.709 3.39319 17.2462 3.85603 16.7071 4.39519L16.6306 4.47168C16.0915 5.01078 15.6287 5.47358 15.2837 5.88729C14.9196 6.32402 14.6063 6.79746 14.45 7.38092C14.2753 8.03296 14.2753 8.7195 14.45 9.37154C14.6063 9.95499 14.9196 10.4284 15.2837 10.8652C15.6287 11.2789 16.0915 11.7417 16.6306 12.2808L17.6204 13.2705L13.2703 17.6206L12.2805 16.6309C11.7414 16.0917 11.2786 15.6289 10.8649 15.2839C10.4282 14.9198 9.95475 14.6066 9.3713 14.4503C8.71926 14.2755 8.03272 14.2755 7.38067 14.4503C6.79722 14.6066 6.32378 14.9198 5.88705 15.2839C5.47332 15.6289 5.01052 16.0917 4.4714 16.6309L4.39495 16.7074C3.85578 17.2465 3.39295 17.7093 3.04798 18.123C2.68384 18.5597 2.37062 19.0332 2.21429 19.6166C2.03957 20.2687 2.03957 20.9552 2.21429 21.6073C2.37062 22.1907 2.68384 22.6642 3.04798 23.1009C3.39293 23.5146 3.85575 23.9774 4.39489 24.5165L4.43317 24.5548L5.38476 25.5064C4.94068 25.9521 4.54163 26.3637 4.24905 26.7472C3.87582 27.2364 3.56023 27.8236 3.56023 28.5652C3.56024 29.3067 3.87582 29.894 4.24906 30.3831C4.58893 30.8286 5.07248 31.312 5.6034 31.8429L8.15721 34.3967C8.68802 34.9276 9.17147 35.4111 9.61693 35.751C10.1061 36.1243 10.6933 36.4398 11.4349 36.4398C12.1765 36.4398 12.7637 36.1243 13.2529 35.751C13.6364 35.4584 14.048 35.0594 14.4937 34.6153L15.4837 35.6052C16.0227 36.1444 16.4855 36.6072 16.8992 36.9521C17.3359 37.3162 17.8094 37.6295 18.3928 37.7858C19.0449 37.9605 19.7314 37.9605 20.3834 37.7858C20.9669 37.6295 21.4403 37.3162 21.8771 36.9521C22.2908 36.6072 22.7536 36.1443 23.2926 35.6052L23.3692 35.5287C23.9083 34.9896 24.3712 34.5268 24.7161 34.113C25.0803 33.6763 25.3935 33.2029 25.5498 32.6194C25.7245 31.9674 25.7245 31.2808 25.5498 30.6288C25.3935 30.0453 25.0803 29.5719 24.7161 29.1352C24.3712 28.7214 23.9083 28.2586 23.3692 27.7195L22.3795 26.7298L26.7296 22.3797L27.7193 23.3695C28.2584 23.9086 28.7212 24.3714 29.1349 24.7164C29.5716 25.0805 30.0451 25.3937 30.6285 25.5501C31.2806 25.7248 31.9671 25.7248 32.6192 25.5501C33.2026 25.3937 33.6761 25.0805 34.1128 24.7164C34.5265 24.3714 34.9893 23.9086 35.5284 23.3694L35.6048 23.293C36.144 22.7539 36.6069 22.291 36.9519 21.8773C37.316 21.4406 37.6292 20.9671 37.7855 20.3837C37.9603 19.7316 37.9603 19.0451 37.7856 18.3931C37.6292 17.8096 37.316 17.3362 36.9519 16.8994C36.6069 16.4857 36.144 16.0229 35.6049 15.4838L34.6151 14.494C35.0592 14.0482 35.4582 13.6366 35.7508 13.2531C36.124 12.764 36.4396 12.1767 36.4396 11.4352C36.4396 10.6936 36.124 10.1064 35.7508 9.61718C35.4109 9.17171 34.9274 8.68826 34.3964 8.15745L31.8426 5.60363C31.3118 5.07271 30.8284 4.58917 30.3829 4.2493C29.8937 3.87607 29.3065 3.56048 28.5649 3.56048C27.8234 3.56048 27.2361 3.87607 26.7469 4.2493C26.3635 4.54188 25.9519 4.94092 25.5061 5.385ZM34.3431 14.222C34.3429 14.2218 34.3433 14.2221 34.3431 14.222V14.222ZM24.9618 20.6119L19.3881 15.0383L15.038 19.3884L20.6117 24.962L24.9618 20.6119ZM7.15269 27.2743C6.71035 27.719 6.42594 28.0155 6.23661 28.2636C6.1328 28.3997 6.08985 28.4812 6.07209 28.5238C6.05945 28.5541 6.06006 28.5626 6.06021 28.5648C6.06006 28.5669 6.05945 28.5763 6.07209 28.6066C6.08985 28.6492 6.1328 28.7306 6.23661 28.8667C6.46218 29.1623 6.82273 29.5266 7.42451 30.1284L9.87165 32.5756C10.4734 33.1774 10.8377 33.5379 11.1334 33.7635C11.2694 33.8673 11.3509 33.9102 11.3935 33.928C11.4261 33.9416 11.4336 33.9398 11.4349 33.9398C11.4348 33.9398 11.435 33.9398 11.4349 33.9398C11.437 33.94 11.446 33.9406 11.4763 33.928C11.5189 33.9102 11.6004 33.8673 11.7364 33.7635C12.0321 33.5379 12.3964 33.1774 12.9982 32.5756C13.8242 31.7495 15.1635 31.7495 15.9895 32.5756L17.2131 33.7991C17.8011 34.3872 18.1839 34.7683 18.5002 35.032C18.8032 35.2846 18.9515 35.3473 19.0399 35.371C19.268 35.4321 19.5082 35.4321 19.7364 35.371C19.8247 35.3473 19.9731 35.2846 20.2761 35.032C20.5923 34.7683 20.9751 34.3872 21.5632 33.7991C22.1512 33.2111 22.5323 32.8283 22.796 32.512C23.0487 32.209 23.1113 32.0607 23.135 31.9724C23.1961 31.7442 23.1961 31.504 23.135 31.2758C23.1113 31.1875 23.0487 31.0392 22.796 30.7362C22.5323 30.4199 22.1512 30.0371 21.5632 29.449L10.551 18.4369C9.96298 17.8488 9.58019 17.4678 9.26393 17.2041C8.96093 16.9514 8.81258 16.8887 8.72425 16.8651C8.4961 16.8039 8.25587 16.8039 8.02772 16.8651C7.93939 16.8887 7.79104 16.9514 7.48804 17.2041C7.17178 17.4678 6.78899 17.8489 6.20094 18.4369C5.61289 19.025 5.23179 19.4077 4.96809 19.724C4.71545 20.027 4.65277 20.1754 4.6291 20.2637C4.56797 20.4918 4.56797 20.7321 4.6291 20.9602C4.65277 21.0485 4.71545 21.1969 4.9681 21.4999C5.23179 21.8162 5.61289 22.1989 6.20094 22.787L11.707 28.2931C12.1952 28.7812 12.1952 29.5727 11.707 30.0608C11.2189 30.549 10.4274 30.549 9.93925 30.0608L7.15269 27.2743Z" fill="white"/>
</svg>
