<svg width="17" height="17" viewBox="0 0 17 17" fill="none" xmlns="http://www.w3.org/2000/svg">
<path fill-rule="evenodd" clip-rule="evenodd" d="M10.0879 2.24731C11.307 1.02824 13.2835 1.02824 14.5025 2.24731C15.7216 3.46637 15.7216 5.44287 14.5025 6.66193L8.17901 12.9855C7.81773 13.3468 7.60506 13.5595 7.36846 13.744C7.0896 13.9615 6.78786 14.148 6.4686 14.3001C6.19774 14.4292 5.91239 14.5243 5.42765 14.6859L3.2069 15.4261L2.67218 15.6044C2.23848 15.749 1.76031 15.6361 1.43704 15.3128C1.11378 14.9895 1.0009 14.5114 1.14547 14.0777L2.06395 11.3222C2.22551 10.8375 2.32062 10.5521 2.44971 10.2812C2.60186 9.96199 2.78834 9.66025 3.00585 9.38139C3.19039 9.14479 3.40309 8.93211 3.76441 8.57082L10.0879 2.24731ZM3.18384 14.3797L5.07818 13.7483C5.60559 13.5725 5.82968 13.4969 6.03838 13.3974C6.29208 13.2765 6.53185 13.1283 6.75344 12.9555C6.93574 12.8133 7.10358 12.6467 7.49669 12.2536L12.543 7.20725C12.0172 7.02182 11.3399 6.67809 10.7058 6.04401C10.0718 5.40993 9.72803 4.7326 9.5426 4.20684L4.49628 9.25316C4.10317 9.64627 3.93655 9.81411 3.79436 9.99641C3.62152 10.218 3.47334 10.4578 3.35243 10.7115C3.25297 10.9202 3.17736 11.1443 3.00156 11.6717L2.37011 13.566L3.18384 14.3797ZM10.3537 3.3957C10.3765 3.51234 10.4151 3.6709 10.4794 3.85626C10.6242 4.27356 10.8976 4.8216 11.4129 5.33691C11.9283 5.85221 12.4763 6.1257 12.8936 6.27047C13.0789 6.33478 13.2375 6.37332 13.3541 6.39612L13.7954 5.95482C14.624 5.12628 14.624 3.78295 13.7954 2.95441C12.9669 2.12587 11.6236 2.12587 10.795 2.95441L10.3537 3.3957Z" fill="#107CE0"/>
</svg>
