<svg width="32" height="32" viewBox="0 0 32 32" fill="none" xmlns="http://www.w3.org/2000/svg">
<path fill-rule="evenodd" clip-rule="evenodd" d="M3 16.0002C3 13.9751 4.64162 12.3335 6.66667 12.3335C8.69171 12.3335 10.3333 13.9751 10.3333 16.0002C10.3333 18.0252 8.69171 19.6668 6.66667 19.6668C4.64162 19.6668 3 18.0252 3 16.0002ZM6.66667 14.3335C5.74619 14.3335 5 15.0797 5 16.0002C5 16.9206 5.74619 17.6668 6.66667 17.6668C7.58714 17.6668 8.33333 16.9206 8.33333 16.0002C8.33333 15.0797 7.58714 14.3335 6.66667 14.3335Z" fill="white"/>
<path fill-rule="evenodd" clip-rule="evenodd" d="M12.3333 16.0002C12.3333 13.9751 13.975 12.3335 16 12.3335C18.025 12.3335 19.6667 13.9751 19.6667 16.0002C19.6667 18.0252 18.025 19.6668 16 19.6668C13.975 19.6668 12.3333 18.0252 12.3333 16.0002ZM16 14.3335C15.0795 14.3335 14.3333 15.0797 14.3333 16.0002C14.3333 16.9206 15.0795 17.6668 16 17.6668C16.9205 17.6668 17.6667 16.9206 17.6667 16.0002C17.6667 15.0797 16.9205 14.3335 16 14.3335Z" fill="white"/>
<path fill-rule="evenodd" clip-rule="evenodd" d="M25.3333 12.3335C23.3083 12.3335 21.6667 13.9751 21.6667 16.0002C21.6667 18.0252 23.3083 19.6668 25.3333 19.6668C27.3584 19.6668 29 18.0252 29 16.0002C29 13.9751 27.3584 12.3335 25.3333 12.3335ZM23.6667 16.0002C23.6667 15.0797 24.4129 14.3335 25.3333 14.3335C26.2538 14.3335 27 15.0797 27 16.0002C27 16.9206 26.2538 17.6668 25.3333 17.6668C24.4129 17.6668 23.6667 16.9206 23.6667 16.0002Z" fill="white"/>
</svg>
