<svg width="150" height="150" viewBox="0 0 150 150" fill="none" xmlns="http://www.w3.org/2000/svg">
<path d="M54.6877 81.25C54.6877 78.6612 52.5891 76.5625 50.0002 76.5625C47.4114 76.5625 45.3127 78.6612 45.3127 81.25V106.25C45.3127 108.839 47.4114 110.938 50.0002 110.938C52.5891 110.938 54.6877 108.839 54.6877 106.25V81.25Z" fill="#32363B"/>
<path d="M100 76.5625C102.589 76.5625 104.688 78.6612 104.688 81.25V106.25C104.688 108.839 102.589 110.938 100 110.938C97.4114 110.938 95.3127 108.839 95.3127 106.25V81.25C95.3127 78.6612 97.4114 76.5625 100 76.5625Z" fill="#32363B"/>
<path d="M79.6877 81.25C79.6877 78.6612 77.5891 76.5625 75.0002 76.5625C72.4114 76.5625 70.3127 78.6612 70.3127 81.25V106.25C70.3127 108.839 72.4114 110.938 75.0002 110.938C77.5891 110.938 79.6877 108.839 79.6877 106.25V81.25Z" fill="#32363B"/>
<path fill-rule="evenodd" clip-rule="evenodd" d="M107.961 21.7061C104.989 20.5445 101.66 20.3484 97.3875 20.3173C95.6331 16.6195 91.8653 14.0625 87.5002 14.0625H62.5002C58.1352 14.0625 54.3674 16.6195 52.613 20.3173C48.3409 20.3484 45.0112 20.5445 42.039 21.7061C38.4879 23.094 35.399 25.4534 33.1258 28.5144C30.8325 31.6024 29.756 35.5605 28.2742 41.0083L24.35 55.4016C21.9281 56.6418 19.8089 58.312 18.041 60.5763C14.1535 65.5552 13.465 71.4855 14.1566 78.288C14.8277 84.8889 16.9058 93.2008 19.5071 103.606L19.6721 104.266C21.317 110.846 22.6525 116.188 24.2409 120.357C25.8969 124.704 27.9994 128.267 31.4658 130.974C34.9322 133.68 38.8987 134.856 43.5175 135.408C47.9476 135.938 53.4544 135.938 60.2367 135.938H89.7632C96.5456 135.938 102.052 135.938 106.482 135.408C111.101 134.856 115.068 133.68 118.534 130.974C122.001 128.267 124.103 124.704 125.759 120.357C127.347 116.188 128.683 110.846 130.328 104.266L130.493 103.606C133.094 93.2011 135.172 84.8889 135.843 78.288C136.535 71.4855 135.846 65.5552 131.959 60.5763C130.191 58.3122 128.072 56.6421 125.651 55.4019L121.726 41.0083C120.245 35.5605 119.168 31.6024 116.875 28.5144C114.601 25.4534 111.513 23.094 107.961 21.7061ZM45.4517 30.4379C46.8255 29.901 48.4853 29.743 52.6218 29.7012C54.38 33.389 58.1425 35.9375 62.5002 35.9375H87.5002C91.858 35.9375 95.6205 33.389 97.3787 29.7012C101.515 29.743 103.175 29.901 104.549 30.4379C106.461 31.1852 108.124 32.4557 109.348 34.1039C110.449 35.586 111.095 37.6568 112.913 44.3247L115.123 52.4293C108.636 51.5623 100.263 51.5624 89.8587 51.5625H60.1413C49.7376 51.5624 41.3639 51.5623 34.8778 52.4293L37.0876 44.3247C38.9057 37.6568 39.5516 35.586 40.6523 34.1039C41.8763 32.4557 43.5396 31.1853 45.4517 30.4379ZM62.5002 23.4375C61.6373 23.4375 60.9377 24.1371 60.9377 25C60.9377 25.8629 61.6373 26.5625 62.5002 26.5625H87.5002C88.3632 26.5625 89.0627 25.8629 89.0627 25C89.0627 24.1371 88.3632 23.4375 87.5002 23.4375H62.5002ZM25.4304 66.3458C27.1731 64.1137 29.9292 62.6144 35.624 61.7906C41.4405 60.9492 49.3269 60.9375 60.5291 60.9375H89.4709C100.673 60.9375 108.559 60.9492 114.376 61.7906C120.071 62.6144 122.827 64.1137 124.57 66.3458C126.312 68.5778 127.098 71.6152 126.516 77.3398C125.922 83.1867 124.021 90.8405 121.304 101.708C119.571 108.64 118.364 113.435 116.998 117.02C115.678 120.486 114.384 122.319 112.765 123.584C111.145 124.849 109.053 125.659 105.369 126.099C101.561 126.555 96.6158 126.562 89.4709 126.562H60.5291C53.3842 126.562 48.4393 126.555 44.6306 126.099C40.9471 125.659 38.8551 124.849 37.2353 123.584C35.6155 122.319 34.3223 120.486 33.0016 117.02C31.6361 113.435 30.4292 108.64 28.6963 101.708C25.9794 90.8405 24.0779 83.1867 23.4835 77.3398C22.9016 71.6152 23.6877 68.5778 25.4304 66.3458Z" fill="#32363B"/>
</svg>
