<svg width="25" height="24" viewBox="0 0 25 24" fill="none" xmlns="http://www.w3.org/2000/svg">
<path fill-rule="evenodd" clip-rule="evenodd" d="M17 2.25C15.2051 2.25 13.75 3.70507 13.75 5.5C13.75 5.69591 13.7673 5.88776 13.8006 6.07412L9.06991 9.38558C9.04587 9.4024 9.02312 9.42038 9.00168 9.43939C8.44993 9.00747 7.75503 8.75 7 8.75C5.20507 8.75 3.75 10.2051 3.75 12C3.75 13.7949 5.20507 15.25 7 15.25C7.75503 15.25 8.44993 14.9925 9.00168 14.5606C9.02312 14.5796 9.04587 14.5976 9.06991 14.6144L13.8006 17.9259C13.7673 18.1122 13.75 18.3041 13.75 18.5C13.75 20.2949 15.2051 21.75 17 21.75C18.7949 21.75 20.25 20.2949 20.25 18.5C20.25 16.7051 18.7949 15.25 17 15.25C15.9472 15.25 15.0113 15.7506 14.4174 16.5267L9.93806 13.3911C10.1381 12.9694 10.25 12.4978 10.25 12C10.25 11.5022 10.1381 11.0306 9.93806 10.6089L14.4174 7.4733C15.0113 8.24942 15.9472 8.75 17 8.75C18.7949 8.75 20.25 7.29493 20.25 5.5C20.25 3.70507 18.7949 2.25 17 2.25ZM15.25 5.5C15.25 4.5335 16.0335 3.75 17 3.75C17.9665 3.75 18.75 4.5335 18.75 5.5C18.75 6.4665 17.9665 7.25 17 7.25C16.0335 7.25 15.25 6.4665 15.25 5.5ZM7 10.25C6.0335 10.25 5.25 11.0335 5.25 12C5.25 12.9665 6.0335 13.75 7 13.75C7.9665 13.75 8.75 12.9665 8.75 12C8.75 11.0335 7.9665 10.25 7 10.25ZM17 16.75C16.0335 16.75 15.25 17.5335 15.25 18.5C15.25 19.4665 16.0335 20.25 17 20.25C17.9665 20.25 18.75 19.4665 18.75 18.5C18.75 17.5335 17.9665 16.75 17 16.75Z" fill="url(#paint0_linear_74_2509)"/>
<defs>
<linearGradient id="paint0_linear_74_2509" x1="20.25" y1="2.25" x2="1.01897" y2="18.5224" gradientUnits="userSpaceOnUse">
<stop stop-color="#107CE0"/>
<stop offset="1" stop-color="#0093C9"/>
</linearGradient>
</defs>
</svg>
