<svg width="25" height="24" viewBox="0 0 25 24" fill="none" xmlns="http://www.w3.org/2000/svg">
<path d="M19.3181 8.27145C19.7199 8.17099 20.1271 8.41531 20.2276 8.81716C20.3281 9.219 20.0837 9.6262 19.6819 9.72667L15.6819 10.7267C15.2801 10.8271 14.8729 10.5828 14.7724 10.181C14.6719 9.77911 14.9163 9.37191 15.3181 9.27145L19.3181 8.27145Z" fill="url(#paint0_linear_74_2514)"/>
<path d="M19.3181 12.2715C19.7199 12.171 20.1271 12.4153 20.2276 12.8172C20.3281 13.219 20.0837 13.6262 19.6819 13.7267L15.6819 14.7267C15.2801 14.8271 14.8729 14.5828 14.7724 14.181C14.6719 13.7791 14.9163 13.3719 15.3181 13.2715L19.3181 12.2715Z" fill="url(#paint1_linear_74_2514)"/>
<path d="M4.77239 8.81716C4.87285 8.41531 5.28006 8.17099 5.6819 8.27145L9.6819 9.27145C10.0837 9.37191 10.3281 9.77911 10.2276 10.181C10.1271 10.5828 9.71994 10.8271 9.3181 10.7267L5.3181 9.72667C4.91625 9.6262 4.67193 9.219 4.77239 8.81716Z" fill="url(#paint2_linear_74_2514)"/>
<path d="M4.77239 12.8172C4.87285 12.4153 5.28006 12.171 5.6819 12.2715L9.6819 13.2715C10.0837 13.3719 10.3281 13.7791 10.2276 14.181C10.1271 14.5828 9.71994 14.8271 9.3181 14.7267L5.3181 13.7267C4.91625 13.6262 4.67193 13.219 4.77239 12.8172Z" fill="url(#paint3_linear_74_2514)"/>
<path fill-rule="evenodd" clip-rule="evenodd" d="M23.25 4.93225C23.25 3.46895 22.0847 2.21401 20.5559 2.26726C19.4175 2.30691 17.9296 2.42533 16.7849 2.76801C15.7899 3.0659 14.6706 3.64774 13.7982 4.15268C12.9801 4.62615 11.9617 4.64976 11.1328 4.2115C10.1374 3.68512 8.82766 3.06117 7.69136 2.76133C6.73055 2.50779 5.51517 2.38601 4.52841 2.32536C2.97017 2.22959 1.75 3.4977 1.75 4.99686V16.1426C1.75 17.6789 2.99378 18.8782 4.46804 18.9704C5.4268 19.0304 6.50566 19.1457 7.30864 19.3576C8.3012 19.6195 9.5286 20.2019 10.5196 20.7301C11.7529 21.3876 13.2471 21.3876 14.4804 20.7301C15.4714 20.2019 16.6988 19.6195 17.6914 19.3576C18.4943 19.1457 19.5732 19.0304 20.532 18.9704C22.0062 18.8782 23.25 17.6789 23.25 16.1426V4.93225ZM20.6081 3.76635C21.2229 3.74494 21.75 4.25066 21.75 4.93225V16.1426C21.75 16.8284 21.1817 17.4268 20.4383 17.4733C19.4582 17.5346 18.2591 17.6564 17.3086 17.9072C16.1383 18.2161 14.7827 18.8692 13.7748 19.4065C13.6065 19.4961 13.4305 19.5668 13.25 19.6184V5.94109C13.7023 5.85055 14.1421 5.68674 14.5495 5.45094C15.4 4.95874 16.3949 4.45055 17.2151 4.205C18.1643 3.92085 19.4892 3.80532 20.6081 3.76635ZM11.75 5.97404C11.295 5.90328 10.849 5.75821 10.4317 5.53753C9.45486 5.02102 8.27076 4.46556 7.30864 4.21168C6.49643 3.99735 5.40238 3.8819 4.43639 3.82253C3.80243 3.78357 3.25 4.29968 3.25 4.99686V16.1426C3.25 16.8284 3.81831 17.4268 4.56168 17.4733C5.54176 17.5346 6.74092 17.6564 7.69136 17.9072C8.8617 18.2161 10.2173 18.8692 11.2252 19.4065C11.3935 19.4961 11.5695 19.5668 11.75 19.6184V5.97404Z" fill="url(#paint4_linear_74_2514)"/>
<defs>
<linearGradient id="paint0_linear_74_2514" x1="23.25" y1="2.26562" x2="4.44156" y2="23.5965" gradientUnits="userSpaceOnUse">
<stop stop-color="#107CE0"/>
<stop offset="1" stop-color="#0093C9"/>
</linearGradient>
<linearGradient id="paint1_linear_74_2514" x1="23.25" y1="2.26562" x2="4.44156" y2="23.5965" gradientUnits="userSpaceOnUse">
<stop stop-color="#107CE0"/>
<stop offset="1" stop-color="#0093C9"/>
</linearGradient>
<linearGradient id="paint2_linear_74_2514" x1="23.25" y1="2.26562" x2="4.44156" y2="23.5965" gradientUnits="userSpaceOnUse">
<stop stop-color="#107CE0"/>
<stop offset="1" stop-color="#0093C9"/>
</linearGradient>
<linearGradient id="paint3_linear_74_2514" x1="23.25" y1="2.26562" x2="4.44156" y2="23.5965" gradientUnits="userSpaceOnUse">
<stop stop-color="#107CE0"/>
<stop offset="1" stop-color="#0093C9"/>
</linearGradient>
<linearGradient id="paint4_linear_74_2514" x1="23.25" y1="2.26562" x2="4.44156" y2="23.5965" gradientUnits="userSpaceOnUse">
<stop stop-color="#107CE0"/>
<stop offset="1" stop-color="#0093C9"/>
</linearGradient>
</defs>
</svg>
