<svg width="20" height="20" viewBox="0 0 20 20" fill="none" xmlns="http://www.w3.org/2000/svg">
<path fill-rule="evenodd" clip-rule="evenodd" d="M8.2864 2.7085H11.7138C13.2452 2.70848 14.4583 2.70847 15.4076 2.83611C16.3846 2.96747 17.1754 3.24423 17.799 3.86787C18.4227 4.4915 18.6994 5.28229 18.8308 6.25931C18.9062 6.82003 18.937 7.47274 18.9497 8.22873C18.9554 8.26279 18.9584 8.29779 18.9584 8.3335C18.9584 8.36287 18.9564 8.39178 18.9525 8.42008C18.9584 8.89152 18.9584 9.40169 18.9584 9.95315V10.0002C18.9584 10.3453 18.6786 10.6252 18.3334 10.6252C17.9882 10.6252 17.7084 10.3453 17.7084 10.0002C17.7084 9.62858 17.7083 9.28216 17.7068 8.9585H2.2934C2.29182 9.28216 2.29175 9.62858 2.29175 10.0002C2.29175 11.5892 2.29308 12.7181 2.40821 13.5745C2.52094 14.4129 2.73233 14.8959 3.085 15.2486C3.43768 15.6013 3.92071 15.8126 4.75912 15.9254C5.61551 16.0405 6.7444 16.0418 8.33341 16.0418H11.6667C12.0119 16.0418 12.2917 16.3217 12.2917 16.6668C12.2917 17.012 12.0119 17.2918 11.6667 17.2918H8.28641C6.75494 17.2918 5.54191 17.2919 4.59256 17.1642C3.61554 17.0329 2.82475 16.7561 2.20112 16.1325C1.57748 15.5088 1.30072 14.718 1.16936 13.741C1.04172 12.7917 1.04174 11.5786 1.04175 10.0472V9.95315C1.04174 9.40168 1.04174 8.8915 1.04769 8.42006C1.04377 8.39177 1.04175 8.36287 1.04175 8.3335C1.04175 8.2978 1.04474 8.2628 1.05049 8.22874C1.06312 7.47275 1.09397 6.82004 1.16936 6.25931C1.30072 5.28229 1.57748 4.4915 2.20112 3.86787C2.82475 3.24423 3.61554 2.96747 4.59256 2.83611C5.54191 2.70847 6.75493 2.70848 8.2864 2.7085ZM2.31348 7.7085H17.6867C17.6704 7.21956 17.6419 6.79711 17.5919 6.42587C17.4792 5.58746 17.2678 5.10442 16.9152 4.75175C16.5625 4.39907 16.0794 4.18768 15.241 4.07496C14.3847 3.95982 13.2558 3.9585 11.6667 3.9585H8.33342C6.7444 3.9585 5.61551 3.95982 4.75912 4.07496C3.92071 4.18768 3.43768 4.39907 3.085 4.75175C2.73233 5.10442 2.52094 5.58746 2.40821 6.42587C2.3583 6.79711 2.32978 7.21956 2.31348 7.7085ZM15.8334 11.0418C16.1786 11.0418 16.4584 11.3217 16.4584 11.6668V15.1579L17.0581 14.5582C17.3022 14.3141 17.6979 14.3141 17.942 14.5582C18.1861 14.8023 18.1861 15.198 17.942 15.4421L16.2754 17.1088C16.0313 17.3528 15.6356 17.3528 15.3915 17.1088L13.7248 15.4421C13.4807 15.198 13.4807 14.8023 13.7248 14.5582C13.9689 14.3141 14.3646 14.3141 14.6087 14.5582L15.2084 15.1579V11.6668C15.2084 11.3217 15.4882 11.0418 15.8334 11.0418ZM4.37508 13.3335C4.37508 12.9883 4.6549 12.7085 5.00008 12.7085H8.33342C8.67859 12.7085 8.95842 12.9883 8.95842 13.3335C8.95842 13.6787 8.67859 13.9585 8.33342 13.9585H5.00008C4.6549 13.9585 4.37508 13.6787 4.37508 13.3335ZM9.79175 13.3335C9.79175 12.9883 10.0716 12.7085 10.4167 12.7085H10.8334C11.1786 12.7085 11.4584 12.9883 11.4584 13.3335C11.4584 13.6787 11.1786 13.9585 10.8334 13.9585H10.4167C10.0716 13.9585 9.79175 13.6787 9.79175 13.3335Z" fill="white"/>
</svg>
