<svg width="32" height="32" viewBox="0 0 32 32" fill="none" xmlns="http://www.w3.org/2000/svg">
<path fill-rule="evenodd" clip-rule="evenodd" d="M24.1211 3.39836C23.3847 2.98595 22.6006 2.94441 21.7717 3.048C20.9844 3.1464 20.0266 3.39535 18.8755 3.69453L16.1845 4.39387C15.034 4.69284 14.076 4.94178 13.343 5.23854C12.5723 5.55057 11.9059 5.96981 11.4737 6.69593C11.0387 7.42664 10.9955 8.20779 11.1039 9.0237C11.2061 9.79297 11.4641 10.7265 11.7714 11.8387L12.4948 14.4572C12.8022 15.57 13.06 16.5033 13.3678 17.2186C13.6947 17.978 14.1313 18.6245 14.8721 19.0394C15.6086 19.4518 16.3927 19.4933 17.2215 19.3897C18.0088 19.2913 18.9666 19.0424 20.1176 18.7432L22.8087 18.0438C23.9593 17.7449 24.9173 17.4959 25.6503 17.1992C26.421 16.8871 27.0873 16.4679 27.5196 15.7418C27.9545 15.0111 27.9977 14.2299 27.8893 13.414C27.7871 12.6447 27.5292 11.7112 27.2219 10.599L26.4985 7.98048C26.1911 6.86774 25.9333 5.93435 25.6254 5.21912C25.2986 4.45969 24.862 3.81319 24.1211 3.39836ZM19.3133 5.6472C20.5465 5.3267 21.3774 5.11284 22.0197 5.03256C22.6352 4.95564 22.9298 5.02346 23.144 5.14339C23.3538 5.26089 23.5542 5.46574 23.7883 6.00978C24.0353 6.58358 24.2583 7.38245 24.5893 8.58064L25.2752 11.0634C25.6063 12.2619 25.8249 13.0615 25.9067 13.6774C25.9845 14.2624 25.9149 14.5274 25.801 14.7188C25.6844 14.9147 25.473 15.1133 24.8997 15.3453C24.3027 15.587 23.4733 15.8047 22.2398 16.1253L19.6799 16.7905C18.4467 17.111 17.6158 17.3249 16.9735 17.4051C16.358 17.4821 16.0634 17.4142 15.8493 17.2943C15.6394 17.1768 15.439 16.972 15.2049 16.4279C14.9579 15.8541 14.7349 15.0553 14.4039 13.8571L13.718 11.3743C13.3869 10.1758 13.1683 9.37623 13.0865 8.76029C13.0088 8.17531 13.0783 7.91026 13.1922 7.71894C13.3089 7.52303 13.5203 7.32445 14.0935 7.09237C14.6905 6.85067 15.52 6.63302 16.7535 6.31245L19.3133 5.6472Z" fill="white"/>
<path fill-rule="evenodd" clip-rule="evenodd" d="M4.2676 6.29959C3.73542 6.15194 3.18431 6.46366 3.03665 6.99584C2.889 7.52803 3.20072 8.07914 3.7329 8.22679L6.0045 8.85704C6.57197 9.01448 6.99456 9.44315 7.13892 9.96569L9.74066 19.3832C9.64071 19.4029 9.5408 19.4256 9.44106 19.4515C6.805 20.1366 5.19418 22.7883 5.91781 25.4077C6.63797 28.0144 9.3762 29.5178 12.0018 28.8355C14.2996 28.2383 15.8184 26.1469 15.6911 23.8852L26.9184 20.9674C27.453 20.8285 27.7737 20.2826 27.6348 19.7481C27.4959 19.2135 26.9499 18.8928 26.4154 19.0317L15.1646 21.9556C14.4867 20.6391 13.2419 19.7236 11.8225 19.4082L9.0667 9.43311C8.7292 8.21146 7.76172 7.26903 6.5392 6.92984L4.2676 6.29959ZM9.94411 21.3872C11.5597 20.9674 13.181 21.9051 13.5973 23.4119C14.0101 24.9062 13.104 26.4826 11.4988 26.8998C9.88314 27.3197 8.26188 26.3819 7.8456 24.8751C7.43279 23.3809 8.33892 21.8044 9.94411 21.3872Z" fill="white"/>
</svg>
