<svg width="40" height="40" viewBox="0 0 40 40" fill="none" xmlns="http://www.w3.org/2000/svg">
<path d="M14.5833 21.6667C14.5833 20.9763 14.0237 20.4167 13.3333 20.4167C12.643 20.4167 12.0833 20.9763 12.0833 21.6667V28.3333C12.0833 29.0237 12.643 29.5833 13.3333 29.5833C14.0237 29.5833 14.5833 29.0237 14.5833 28.3333V21.6667Z" fill="white"/>
<path d="M26.6667 20.4167C27.357 20.4167 27.9167 20.9763 27.9167 21.6667V28.3333C27.9167 29.0237 27.357 29.5833 26.6667 29.5833C25.9763 29.5833 25.4167 29.0237 25.4167 28.3333V21.6667C25.4167 20.9763 25.9763 20.4167 26.6667 20.4167Z" fill="white"/>
<path d="M21.25 21.6667C21.25 20.9763 20.6904 20.4167 20 20.4167C19.3096 20.4167 18.75 20.9763 18.75 21.6667V28.3333C18.75 29.0237 19.3096 29.5833 20 29.5833C20.6904 29.5833 21.25 29.0237 21.25 28.3333V21.6667Z" fill="white"/>
<path fill-rule="evenodd" clip-rule="evenodd" d="M28.7897 5.7883C27.9971 5.47853 27.1092 5.42623 25.9699 5.41795C25.5021 4.43186 24.4973 3.75 23.3333 3.75H16.6667C15.5027 3.75 14.4979 4.43186 14.0301 5.41795C12.8908 5.42623 12.0029 5.47853 11.2103 5.7883C10.2634 6.15841 9.43968 6.78758 8.83348 7.60384C8.22194 8.42731 7.93486 9.4828 7.53973 10.9356L6.49328 14.7738C5.84744 15.1045 5.2823 15.5499 4.81086 16.1537C3.7742 17.4814 3.59061 19.0628 3.77503 20.8768C3.95398 22.637 4.50814 24.8535 5.20184 27.6282L5.24584 27.8042C5.68446 29.5588 6.04059 30.9834 6.46417 32.0953C6.90578 33.2545 7.46645 34.2046 8.39082 34.9263C9.31519 35.648 10.3729 35.9615 11.6046 36.1088C12.786 36.25 14.2544 36.25 16.0631 36.25H23.9368C25.7454 36.25 27.2139 36.25 28.3953 36.1088C29.6269 35.9615 30.6847 35.648 31.609 34.9263C32.5334 34.2046 33.0941 33.2545 33.5357 32.0953C33.9593 30.9834 34.3154 29.5588 34.754 27.8042L34.798 27.6283C35.4917 24.8536 36.0459 22.637 36.2248 20.8768C36.4092 19.0628 36.2257 17.4814 35.189 16.1537C34.7176 15.5499 34.1525 15.1046 33.5067 14.7738L32.4603 10.9355C32.0651 9.4828 31.7781 8.42731 31.1665 7.60384C30.5603 6.78758 29.7366 6.15841 28.7897 5.7883ZM12.1204 8.11678C12.4867 7.9736 12.9294 7.93147 14.0324 7.92032C14.5013 8.90374 15.5046 9.58333 16.6667 9.58333H23.3333C24.4954 9.58333 25.4987 8.90374 25.9676 7.92032C27.0706 7.93147 27.5133 7.9736 27.8796 8.11678C28.3895 8.31607 28.833 8.65485 29.1595 9.09438C29.453 9.48961 29.6252 10.0418 30.11 11.8199L30.6993 13.9812C28.9697 13.7499 26.7366 13.75 23.9623 13.75H16.0376C13.2633 13.75 11.0303 13.7499 9.30067 13.9811L9.88997 11.8199C10.3748 10.0418 10.547 9.48961 10.8405 9.09437C11.167 8.65485 11.6105 8.31607 12.1204 8.11678ZM16.6667 6.25C16.4365 6.25 16.25 6.43655 16.25 6.66667C16.25 6.89679 16.4365 7.08333 16.6667 7.08333H23.3333C23.5635 7.08333 23.75 6.89679 23.75 6.66667C23.75 6.43655 23.5635 6.25 23.3333 6.25H16.6667ZM6.78137 17.6922C7.2461 17.097 7.98106 16.6972 9.49967 16.4775C11.0507 16.2531 13.1538 16.25 16.141 16.25H23.8588C26.8461 16.25 28.9491 16.2531 30.5002 16.4775C32.0188 16.6972 32.7538 17.097 33.2185 17.6922C33.6832 18.2874 33.8928 19.0974 33.7376 20.624C33.5791 22.1831 33.0721 24.2241 32.3476 27.1222C31.8855 28.9706 31.5636 30.2494 31.1995 31.2052C30.8473 32.1297 30.5024 32.6185 30.0705 32.9558C29.6386 33.293 29.0807 33.509 28.0984 33.6265C27.0828 33.7479 25.7641 33.75 23.8588 33.75H16.141C14.2357 33.75 12.9171 33.7479 11.9014 33.6265C10.9192 33.509 10.3613 33.293 9.92935 32.9558C9.49741 32.6185 9.15256 32.1297 8.80037 31.2052C8.43622 30.2494 8.11438 28.9706 7.65228 27.1222C6.92777 24.2241 6.42072 22.1831 6.26221 20.624C6.10702 19.0974 6.31664 18.2874 6.78137 17.6922Z" fill="white"/>
</svg>
