<svg width="40" height="40" viewBox="0 0 40 40" fill="none" xmlns="http://www.w3.org/2000/svg">
<path fill-rule="evenodd" clip-rule="evenodd" d="M27.0833 6.25V9.06589L30.4166 11.7326V6.25H27.0833ZM32.9166 13.7326V5.83333C32.9166 4.68274 31.9839 3.75 30.8333 3.75H26.6666C25.516 3.75 24.5833 4.68274 24.5833 5.83333V7.06589L23.9043 6.5227C21.6217 4.6966 18.3782 4.6966 16.0956 6.5227L2.55243 17.3572C2.01335 17.7885 1.92595 18.5751 2.35721 19.1142C2.78847 19.6533 3.57509 19.7407 4.11417 19.3094L5.41663 18.2674V35.4167H3.3333C2.64294 35.4167 2.0833 35.9763 2.0833 36.6667C2.0833 37.357 2.64294 37.9167 3.3333 37.9167H36.6666C37.357 37.9167 37.9166 37.357 37.9166 36.6667C37.9166 35.9763 37.357 35.4167 36.6666 35.4167H34.5833V18.2674L35.8858 19.3094C36.4248 19.7407 37.2115 19.6533 37.6427 19.1142C38.074 18.5751 37.9866 17.7885 37.4475 17.3572L32.9166 13.7326ZM32.0833 16.2674L22.3426 8.47487C20.973 7.37921 19.0269 7.37921 17.6574 8.47487L7.91663 16.2674V35.4167H13.75L13.75 28.2511C13.7499 27.1429 13.7498 26.1882 13.8526 25.4236C13.9628 24.6042 14.2112 23.8188 14.8483 23.1817C15.4854 22.5446 16.2708 22.2962 17.0902 22.186C17.8548 22.0832 18.8096 22.0833 19.9177 22.0833H20.0822C21.1904 22.0833 22.1451 22.0832 22.9097 22.186C23.7291 22.2962 24.5145 22.5446 25.1516 23.1817C25.7887 23.8188 26.0371 24.6042 26.1473 25.4236C26.2501 26.1882 26.25 27.1429 26.25 28.2511L26.25 35.4167H32.0833V16.2674ZM23.75 35.4167V28.3333C23.75 27.1195 23.7473 26.3348 23.6696 25.7567C23.5967 25.2145 23.479 25.0446 23.3838 24.9494C23.2887 24.8543 23.1188 24.7366 22.5766 24.6637C21.9985 24.586 21.2138 24.5833 20 24.5833C18.7861 24.5833 18.0015 24.586 17.4233 24.6637C16.8812 24.7366 16.7112 24.8543 16.6161 24.9494C16.5209 25.0446 16.4032 25.2145 16.3303 25.7567C16.2526 26.3348 16.25 27.1195 16.25 28.3333V35.4167H23.75ZM20 13.75C18.8494 13.75 17.9166 14.6827 17.9166 15.8333C17.9166 16.9839 18.8494 17.9167 20 17.9167C21.1506 17.9167 22.0833 16.9839 22.0833 15.8333C22.0833 14.6827 21.1506 13.75 20 13.75ZM15.4166 15.8333C15.4166 13.302 17.4687 11.25 20 11.25C22.5313 11.25 24.5833 13.302 24.5833 15.8333C24.5833 18.3646 22.5313 20.4167 20 20.4167C17.4687 20.4167 15.4166 18.3646 15.4166 15.8333Z" fill="white"/>
</svg>
