<svg width="40" height="40" viewBox="0 0 40 40" fill="none" xmlns="http://www.w3.org/2000/svg">
<path fill-rule="evenodd" clip-rule="evenodd" d="M14.2624 7.21312C14.7242 7.72626 14.6826 8.51662 14.1695 8.97844L11.342 11.5231C10.0289 12.705 9.14355 13.5056 8.57006 14.1874C8.01964 14.8416 7.89941 15.2236 7.89941 15.5493C7.89941 15.875 8.01964 16.257 8.57006 16.9113C9.14355 17.593 10.0289 18.3937 11.342 19.5755L14.1695 22.1202C14.6826 22.582 14.7242 23.3724 14.2624 23.8855C13.8006 24.3987 13.0102 24.4403 12.4971 23.9784L9.60122 21.3722C8.37399 20.2678 7.35599 19.3516 6.65697 18.5207C5.92192 17.6469 5.39941 16.7082 5.39941 15.5493C5.39941 14.3905 5.92192 13.4517 6.65697 12.578C7.356 11.747 8.374 10.8309 9.60123 9.72644C9.62395 9.706 9.64674 9.68549 9.6696 9.66491L12.4971 7.12021C13.0102 6.65839 13.8006 6.69998 14.2624 7.21312ZM23.6324 7.12529C24.2996 7.30262 24.6967 7.98724 24.5193 8.65443L17.8746 33.6544C17.6973 34.3216 17.0127 34.7187 16.3455 34.5414C15.6783 34.3641 15.2812 33.6794 15.4585 33.0123L22.1032 8.01226C22.2806 7.34507 22.9652 6.94796 23.6324 7.12529ZM25.7375 17.4971C26.1993 16.984 26.9897 16.9424 27.5028 17.4042L30.3986 20.0104C31.6258 21.1149 32.6438 22.031 33.3429 22.862C34.0779 23.7358 34.6004 24.6745 34.6004 25.8333C34.6004 26.9922 34.0779 27.9309 33.3429 28.8047C32.6439 29.6356 31.6259 30.5518 30.3986 31.6562L27.5028 34.2625C26.9897 34.7243 26.1993 34.6827 25.7375 34.1695C25.2756 33.6564 25.3172 32.8661 25.8304 32.4042L28.6578 29.8595C29.971 28.6777 30.8563 27.877 31.4298 27.1953C31.9802 26.541 32.1004 26.1591 32.1004 25.8333C32.1004 25.5076 31.9802 25.1257 31.4298 24.4714C30.8563 23.7896 29.971 22.989 28.6578 21.8072L25.8304 19.2625C25.3172 18.8006 25.2756 18.0103 25.7375 17.4971Z" fill="white"/>
</svg>
