<svg width="41" height="40" viewBox="0 0 41 40" fill="none" xmlns="http://www.w3.org/2000/svg">
<path fill-rule="evenodd" clip-rule="evenodd" d="M20.5728 2.0835H20.7609C23.8238 2.08347 26.2498 2.08345 28.1485 2.33872C30.1026 2.60143 31.6842 3.15496 32.9314 4.40224C34.1787 5.64951 34.7322 7.23109 34.9949 9.18513C35.2502 11.0838 35.2502 13.5099 35.2502 16.5728V23.4275C35.2502 26.4905 35.2502 28.9165 34.9949 30.8152C34.7322 32.7692 34.1787 34.3508 32.9314 35.5981C31.6842 36.8454 30.1026 37.3989 28.1485 37.6616C26.2498 37.9169 23.8238 37.9169 20.7608 37.9168H20.5728C17.5099 37.9169 15.0838 37.9169 13.1851 37.6616C11.2311 37.3989 9.64951 36.8454 8.40224 35.5981C7.15496 34.3508 6.60143 32.7692 6.33872 30.8152C6.08345 28.9165 6.08347 26.4905 6.0835 23.4275V16.5728C6.08347 13.5099 6.08345 11.0838 6.33872 9.18512C6.60143 7.23109 7.15496 5.64951 8.40224 4.40224C9.64951 3.15496 11.2311 2.60143 13.1851 2.33872C15.0838 2.08345 17.5099 2.08347 20.5728 2.0835ZM12.0235 5.12211C11.2084 5.36571 10.633 5.70697 10.17 6.17C9.46465 6.87535 9.04187 7.84143 8.81643 9.51824C8.58615 11.231 8.5835 13.4888 8.5835 16.6668V23.3335C8.5835 26.5115 8.58615 28.7693 8.81643 30.4821C9.04187 32.1589 9.46465 33.125 10.17 33.8303C10.8754 34.5357 11.8414 34.9585 13.5182 35.1839C15.231 35.4142 17.4888 35.4168 20.6668 35.4168C23.8449 35.4168 26.1026 35.4142 27.8154 35.1839C29.4922 34.9585 30.4583 34.5357 31.1637 33.8303C31.869 33.125 32.2918 32.1589 32.5172 30.4821C32.7475 28.7693 32.7502 26.5115 32.7502 23.3335V16.6668C32.7502 13.4888 32.7475 11.231 32.5172 9.51824C32.2918 7.84143 31.869 6.87535 31.1637 6.17C30.7006 5.70697 30.1252 5.36571 29.3102 5.12211C28.2073 6.77824 27.4362 7.92958 26.2897 8.64206C26.0609 8.7842 25.8232 8.9114 25.5781 9.02288C24.3411 9.58537 22.9452 9.58464 20.9342 9.58359C20.8463 9.58354 20.7572 9.5835 20.6668 9.5835C20.5765 9.5835 20.4874 9.58354 20.3995 9.58359C18.3884 9.58464 16.9925 9.58537 15.7556 9.02288C15.5104 8.9114 15.2727 8.78419 15.044 8.64206C13.8974 7.92958 13.1263 6.77827 12.0235 5.12211ZM14.7523 4.69364C15.4924 5.76622 15.88 6.21818 16.3635 6.51863C16.5007 6.60392 16.6434 6.68024 16.7904 6.74713C17.472 7.05703 18.2795 7.0835 20.6668 7.0835C23.0542 7.0835 23.8617 7.05703 24.5432 6.74713C24.6903 6.68024 24.8329 6.60391 24.9702 6.51863C25.4537 6.21819 25.8412 5.76621 26.5814 4.69364C25.0476 4.5851 23.1347 4.5835 20.6668 4.5835C18.199 4.5835 16.286 4.5851 14.7523 4.69364ZM14.4168 31.6668C14.4168 30.9765 14.9765 30.4168 15.6668 30.4168H25.6668C26.3572 30.4168 26.9168 30.9765 26.9168 31.6668C26.9168 32.3572 26.3572 32.9168 25.6668 32.9168H15.6668C14.9765 32.9168 14.4168 32.3572 14.4168 31.6668Z" fill="white"/>
</svg>
