<svg width="16" height="17" viewBox="0 0 16 17" fill="none" xmlns="http://www.w3.org/2000/svg">
<path fill-rule="evenodd" clip-rule="evenodd" d="M8.00016 1.33301C7.59701 1.33301 7.2258 1.4332 6.81935 1.60129C6.42688 1.7636 5.97105 2.00281 5.40343 2.30069L4.02509 3.02401C3.32844 3.38959 2.77094 3.68215 2.34048 3.96962C1.89452 4.26743 1.55104 4.58102 1.30091 5.00579C1.05162 5.42915 0.939468 5.88757 0.885688 6.43349C0.833486 6.96339 0.833491 7.61511 0.833496 8.43472V8.56462C0.833491 9.38423 0.833486 10.036 0.885688 10.5659C0.939468 11.1118 1.05162 11.5702 1.30091 11.9936C1.55104 12.4183 1.89452 12.7319 2.34048 13.0297C2.77093 13.3172 3.32843 13.6098 4.02508 13.9753L5.40337 14.6986C5.97101 14.9965 6.42687 15.2357 6.81935 15.3981C7.2258 15.5662 7.59701 15.6663 8.00016 15.6663C8.40332 15.6663 8.77453 15.5662 9.18098 15.3981C9.57344 15.2358 10.0293 14.9965 10.5969 14.6987L11.9752 13.9753C12.6719 13.6098 13.2294 13.3172 13.6598 13.0297C14.1058 12.7319 14.4493 12.4183 14.6994 11.9936C14.9487 11.5702 15.0609 11.1118 15.1146 10.5659C15.1668 10.036 15.1668 9.38425 15.1668 8.56464V8.43471C15.1668 7.6151 15.1668 6.96339 15.1146 6.43349C15.0609 5.88757 14.9487 5.42915 14.6994 5.00579C14.4493 4.58102 14.1058 4.26743 13.6598 3.96962C13.2294 3.68215 12.6719 3.38959 11.9752 3.02401L10.5969 2.3007C10.0293 2.00282 9.57345 1.7636 9.18098 1.60129C8.77453 1.4332 8.40332 1.33301 8.00016 1.33301ZM5.84736 3.19706C6.44051 2.88579 6.85616 2.66821 7.20151 2.52538C7.53765 2.38637 7.7738 2.33301 8.00016 2.33301C8.22653 2.33301 8.46267 2.38637 8.79881 2.52538C9.14416 2.66821 9.55982 2.88579 10.153 3.19706L11.4863 3.89676C12.2128 4.27799 12.7231 4.54656 13.1045 4.80122C13.2926 4.92686 13.4405 5.04353 13.5598 5.16084L11.3393 6.27106L5.67279 3.28867L5.84736 3.19706ZM4.62994 3.83593L4.51403 3.89676C3.78757 4.27799 3.27718 4.54656 2.89584 4.80122C2.70771 4.92686 2.55987 5.04353 2.44052 5.16084L8.00016 7.94066L10.2383 6.8216L4.76729 3.94213C4.71414 3.91416 4.66811 3.87796 4.62994 3.83593ZM1.95862 6.03792C1.92495 6.18051 1.8995 6.34242 1.88087 6.53153C1.83406 7.00674 1.8335 7.60928 1.8335 8.46068V8.53867C1.8335 9.39007 1.83406 9.99261 1.88087 10.4678C1.92666 10.9326 2.01364 11.2332 2.16261 11.4861C2.31074 11.7377 2.52501 11.9505 2.89584 12.1981C3.27718 12.4528 3.78757 12.7214 4.51403 13.1026L5.84736 13.8023C6.44051 14.1136 6.85616 14.3311 7.20152 14.474C7.31056 14.5191 7.40908 14.5551 7.50016 14.5833V8.80869L1.95862 6.03792ZM8.50016 14.5833C8.59124 14.5551 8.68976 14.5191 8.79881 14.474C9.14416 14.3311 9.55982 14.1136 10.153 13.8023L11.4863 13.1026C12.2128 12.7214 12.7231 12.4528 13.1045 12.1981C13.4753 11.9505 13.6896 11.7377 13.8377 11.4861C13.9867 11.2332 14.0737 10.9326 14.1195 10.4678C14.1663 9.99261 14.1668 9.39007 14.1668 8.53867V8.46068C14.1668 7.60928 14.1663 7.00674 14.1195 6.53153C14.1008 6.34242 14.0754 6.18051 14.0417 6.03792L11.8335 7.14202V9.16634C11.8335 9.44248 11.6096 9.66634 11.3335 9.66634C11.0574 9.66634 10.8335 9.44248 10.8335 9.16634V7.64202L8.50016 8.80869V14.5833Z" fill="white"/>
</svg>
