<svg width="81" height="80" viewBox="0 0 81 80" fill="none" xmlns="http://www.w3.org/2000/svg">
<path d="M26.3333 30.0003C26.3333 28.6196 25.214 27.5003 23.8333 27.5003C22.4526 27.5003 21.3333 28.6196 21.3333 30.0003V60.0003C21.3333 61.381 22.4526 62.5003 23.8333 62.5003C25.214 62.5003 26.3333 61.381 26.3333 60.0003V30.0003Z" fill="#575F67"/>
<path d="M40.5 17.5003C41.8807 17.5003 43 18.6196 43 20.0003V60.0003C43 61.381 41.8807 62.5003 40.5 62.5003C39.1192 62.5003 38 61.381 38 60.0003V20.0003C38 18.6196 39.1192 17.5003 40.5 17.5003Z" fill="#575F67"/>
<path d="M59.6666 43.3337C59.6666 41.9529 58.5473 40.8337 57.1666 40.8337C55.7859 40.8337 54.6666 41.9529 54.6666 43.3337V60.0003C54.6666 61.381 55.7859 62.5003 57.1666 62.5003C58.5473 62.5003 59.6666 61.381 59.6666 60.0003V43.3337Z" fill="#575F67"/>
<path fill-rule="evenodd" clip-rule="evenodd" d="M40.3087 4.16699C32.6141 4.16695 26.5839 4.16692 21.879 4.79948C17.0632 5.44695 13.2631 6.79808 10.2804 9.78078C7.29771 12.7635 5.94658 16.5636 5.29911 21.3793C4.66655 26.0843 4.66658 32.1144 4.66663 39.8091V40.1916C4.66658 47.8862 4.66655 53.9164 5.29911 58.6213C5.94658 63.4371 7.29771 67.2372 10.2804 70.2199C13.2631 73.2026 17.0632 74.5537 21.879 75.2012C26.5839 75.8337 32.6141 75.8337 40.3087 75.8337H40.6912C48.3859 75.8337 54.416 75.8337 59.1209 75.2012C63.9367 74.5537 67.7368 73.2026 70.7195 70.2199C73.7022 67.2372 75.0533 63.4371 75.7008 58.6213C76.3334 53.9163 76.3333 47.8862 76.3333 40.1916V39.8091C76.3333 32.1144 76.3334 26.0843 75.7008 21.3793C75.0533 16.5636 73.7022 12.7635 70.7195 9.78078C67.7368 6.79808 63.9367 5.44695 59.1209 4.79948C54.416 4.16692 48.3859 4.16695 40.6912 4.16699H40.3087ZM13.8159 13.3163C15.7148 11.4175 18.2839 10.3278 22.5452 9.75489C26.8785 9.1723 32.5725 9.16699 40.5 9.16699C48.4274 9.16699 54.1214 9.1723 58.4547 9.75489C62.716 10.3278 65.2851 11.4175 67.184 13.3163C69.0828 15.2152 70.1725 17.7842 70.7454 22.0456C71.328 26.3788 71.3333 32.0729 71.3333 40.0003C71.3333 47.9277 71.328 53.6218 70.7454 57.9551C70.1725 62.2164 69.0828 64.7855 67.184 66.6843C65.2851 68.5832 62.716 69.6728 58.4547 70.2458C54.1214 70.8283 48.4274 70.8337 40.5 70.8337C32.5725 70.8337 26.8785 70.8283 22.5452 70.2458C18.2839 69.6728 15.7148 68.5832 13.8159 66.6843C11.9171 64.7855 10.8275 62.2164 10.2545 57.9551C9.67194 53.6218 9.66663 47.9277 9.66663 40.0003C9.66663 32.0729 9.67194 26.3788 10.2545 22.0456C10.8275 17.7842 11.9171 15.2152 13.8159 13.3163Z" fill="#575F67"/>
</svg>
