<svg width="21" height="20" viewBox="0 0 21 20" fill="none" xmlns="http://www.w3.org/2000/svg">
<path fill-rule="evenodd" clip-rule="evenodd" d="M7.1209 3.54199H11.379C12.5187 3.54198 13.4373 3.54196 14.1598 3.6391C14.9098 3.73994 15.5414 3.95569 16.043 4.45728C16.505 4.9193 16.7245 5.49158 16.8351 6.16518C17.5088 6.27572 18.0811 6.49525 18.5432 6.95733C19.0448 7.45893 19.2606 8.09049 19.3614 8.84058C19.4585 9.56305 19.4585 10.4817 19.4585 11.6213V11.7128C19.4585 12.8524 19.4585 13.771 19.3614 14.4935C19.2606 15.2436 19.0448 15.8751 18.5432 16.3767C18.0416 16.8783 17.4101 17.0941 16.66 17.1949C15.9375 17.2921 15.0189 17.2921 13.8792 17.292H9.62111C8.48145 17.2921 7.56285 17.2921 6.84038 17.1949C6.09029 17.0941 5.45873 16.8783 4.95713 16.3767C4.4951 15.9147 4.27556 15.3424 4.16502 14.6688C3.49133 14.5583 2.91898 14.3388 2.45692 13.8767C1.95532 13.3751 1.73958 12.7435 1.63873 11.9935C1.5416 11.271 1.54161 10.3524 1.54163 9.21272V9.12126C1.54161 7.98161 1.5416 7.06301 1.63873 6.34053C1.73958 5.59044 1.95532 4.95888 2.45692 4.45728C2.95852 3.95569 3.59008 3.73994 4.34017 3.6391C5.06264 3.54196 5.98124 3.54198 7.1209 3.54199ZM5.46305 14.7767C5.55046 15.1124 5.67495 15.3268 5.84101 15.4929C6.07165 15.7235 6.39546 15.8739 7.00694 15.9561C7.6364 16.0407 8.47066 16.042 9.66684 16.042H13.8335C15.0297 16.042 15.8639 16.0407 16.4934 15.9561C17.1049 15.8739 17.4287 15.7235 17.6593 15.4929C17.89 15.2622 18.0403 14.9384 18.1225 14.3269C18.2072 13.6975 18.2085 12.8632 18.2085 11.667C18.2085 10.4709 18.2072 9.6366 18.1225 9.00714C18.0403 8.39566 17.89 8.07185 17.6593 7.84121C17.4932 7.67512 17.2788 7.55061 16.943 7.4632C16.9583 7.95394 16.9583 8.50532 16.9583 9.12127V9.21272C16.9583 10.3524 16.9583 11.271 16.8612 11.9935C16.7603 12.7435 16.5446 13.3751 16.043 13.8767C15.5414 14.3783 14.9098 14.594 14.1598 14.6949C13.4373 14.792 12.5187 14.792 11.379 14.792H7.1209C6.50504 14.792 5.95374 14.792 5.46305 14.7767ZM4.50673 4.87795C3.89525 4.96016 3.57144 5.11053 3.3408 5.34117C3.11017 5.5718 2.95979 5.89561 2.87758 6.50709C2.79295 7.13655 2.79163 7.97081 2.79163 9.16699C2.79163 10.3632 2.79295 11.1974 2.87758 11.8269C2.95979 12.4384 3.11017 12.7622 3.3408 12.9928C3.57144 13.2235 3.89525 13.3738 4.50673 13.456C5.13619 13.5407 5.97045 13.542 7.16663 13.542H11.3333C12.5295 13.542 13.3637 13.5407 13.9932 13.456C14.6047 13.3738 14.9285 13.2235 15.1591 12.9928C15.3898 12.7622 15.5401 12.4384 15.6223 11.8269C15.707 11.1974 15.7083 10.3632 15.7083 9.16699C15.7083 7.97081 15.707 7.13655 15.6223 6.50709C15.5401 5.89561 15.3898 5.5718 15.1591 5.34117C14.9285 5.11053 14.6047 4.96016 13.9932 4.87795C13.3637 4.79332 12.5295 4.79199 11.3333 4.79199H7.16663C5.97045 4.79199 5.13619 4.79332 4.50673 4.87795ZM9.24996 7.70866C8.44454 7.70866 7.79163 8.36158 7.79163 9.16699C7.79163 9.97241 8.44454 10.6253 9.24996 10.6253C10.0554 10.6253 10.7083 9.97241 10.7083 9.16699C10.7083 8.36158 10.0554 7.70866 9.24996 7.70866ZM6.54163 9.16699C6.54163 7.67122 7.75419 6.45866 9.24996 6.45866C10.7457 6.45866 11.9583 7.67122 11.9583 9.16699C11.9583 10.6628 10.7457 11.8753 9.24996 11.8753C7.75419 11.8753 6.54163 10.6628 6.54163 9.16699ZM4.66663 6.87533C5.0118 6.87533 5.29163 7.15515 5.29163 7.50033V10.8337C5.29163 11.1788 5.0118 11.4587 4.66663 11.4587C4.32145 11.4587 4.04163 11.1788 4.04163 10.8337L4.04163 7.50033C4.04163 7.15515 4.32145 6.87533 4.66663 6.87533ZM13.8333 6.87533C14.1785 6.87533 14.4583 7.15515 14.4583 7.50033V10.8337C14.4583 11.1788 14.1785 11.4587 13.8333 11.4587C13.4881 11.4587 13.2083 11.1788 13.2083 10.8337V7.50033C13.2083 7.15515 13.4881 6.87533 13.8333 6.87533Z" fill="white"/>
</svg>
