<svg width="32" height="32" viewBox="0 0 32 32" fill="none" xmlns="http://www.w3.org/2000/svg">
<path fill-rule="evenodd" clip-rule="evenodd" d="M3 8C3 7.44772 3.44772 7 4 7H26.6667C27.219 7 27.6667 7.44772 27.6667 8C27.6667 8.55228 27.219 9 26.6667 9H4C3.44772 9 3 8.55228 3 8ZM23.3333 11C23.8856 11 24.3333 11.4477 24.3333 12V20.2525L25.9596 18.6262C26.3501 18.2357 26.9832 18.2357 27.3738 18.6262C27.7643 19.0167 27.7643 19.6499 27.3738 20.0404L24.0404 23.3738C23.6499 23.7643 23.0167 23.7643 22.6262 23.3738L19.2929 20.0404C18.9024 19.6499 18.9024 19.0167 19.2929 18.6262C19.6834 18.2357 20.3166 18.2357 20.7071 18.6262L22.3333 20.2525V12C22.3333 11.4477 22.781 11 23.3333 11ZM3 14.6667C3 14.1144 3.44772 13.6667 4 13.6667H16C16.5523 13.6667 17 14.1144 17 14.6667C17 15.219 16.5523 15.6667 16 15.6667H4C3.44772 15.6667 3 15.219 3 14.6667ZM3 21.3333C3 20.781 3.44772 20.3333 4 20.3333H14.6667C15.219 20.3333 15.6667 20.781 15.6667 21.3333C15.6667 21.8856 15.219 22.3333 14.6667 22.3333H4C3.44772 22.3333 3 21.8856 3 21.3333Z" fill="#575F67"/>
</svg>
