<svg width="41" height="40" viewBox="0 0 41 40" fill="none" xmlns="http://www.w3.org/2000/svg">
<path fill-rule="evenodd" clip-rule="evenodd" d="M15.1744 7.08351C15.2266 7.08352 15.2795 7.08353 15.3332 7.08353H25.3332C25.3868 7.08353 25.4397 7.08352 25.492 7.08351C26.8887 7.0833 27.7778 7.08317 28.5443 7.23564C31.6848 7.86032 34.1397 10.3153 34.7644 13.4557L33.5384 13.6996L34.7644 13.4557C34.8804 14.0392 34.9081 14.6936 34.9146 15.5888C36.8393 16.1323 38.2498 17.9015 38.2498 20.0002V24.0743C38.2498 26.6238 36.9202 28.8629 34.9165 30.1357V31.6669C34.9165 32.3572 34.3569 32.9169 33.6665 32.9169C32.9761 32.9169 32.4165 32.3572 32.4165 31.6669V31.1248C31.9816 31.2071 31.5328 31.2502 31.0739 31.2502H9.59243C9.13357 31.2502 8.68476 31.2071 8.24984 31.1248V31.6669C8.24984 32.3572 7.69019 32.9169 6.99984 32.9169C6.30948 32.9169 5.74984 32.3572 5.74984 31.6669V30.1357C3.74615 28.8629 2.4165 26.6238 2.4165 24.0743V20.0002C2.4165 17.9015 3.82702 16.1323 5.75176 15.5888C5.75826 14.6936 5.7859 14.0392 5.90195 13.4557C6.52663 10.3153 8.98157 7.86032 12.122 7.23564C12.8886 7.08317 13.7776 7.0833 15.1744 7.08351ZM8.25263 15.5902C10.175 16.1352 11.5832 17.9032 11.5832 20.0002V22.0002C11.5832 22.0462 11.6205 22.0835 11.6665 22.0835H28.9998C29.0459 22.0835 29.0832 22.0462 29.0832 22.0002V20.0002C29.0832 17.9032 30.4914 16.1352 32.4137 15.5902C32.407 14.7411 32.3848 14.3071 32.3124 13.9435C31.885 11.7947 30.2053 10.115 28.0566 9.68761C27.5638 9.58958 26.9419 9.58353 25.3332 9.58353H15.3332C13.7244 9.58353 13.1026 9.58958 12.6098 9.68761C10.461 10.115 8.78133 11.7947 8.35392 13.9435C8.28157 14.3071 8.25932 14.7411 8.25263 15.5902ZM6.99984 17.9169C5.84924 17.9169 4.9165 18.8496 4.9165 20.0002V24.0743C4.9165 26.6567 7.00999 28.7502 9.59243 28.7502H31.0739C33.6564 28.7502 35.7498 26.6567 35.7498 24.0743V20.0002C35.7498 18.8496 34.8171 17.9169 33.6665 17.9169C32.5159 17.9169 31.5832 18.8496 31.5832 20.0002V22.0002C31.5832 23.4269 30.4266 24.5835 28.9998 24.5835H11.6665C10.2398 24.5835 9.08317 23.4269 9.08317 22.0002V20.0002C9.08317 18.8496 8.15043 17.9169 6.99984 17.9169Z" fill="white"/>
</svg>
