<svg width="16" height="17" viewBox="0 0 16 17" fill="none" xmlns="http://www.w3.org/2000/svg">
<path fill-rule="evenodd" clip-rule="evenodd" d="M8.00016 2.33301C4.59441 2.33301 1.8335 5.09392 1.8335 8.49967C1.8335 11.9054 4.59441 14.6663 8.00016 14.6663C11.4059 14.6663 14.1668 11.9054 14.1668 8.49967C14.1668 5.09392 11.4059 2.33301 8.00016 2.33301ZM0.833496 8.49967C0.833496 4.54163 4.04212 1.33301 8.00016 1.33301C11.9582 1.33301 15.1668 4.54163 15.1668 8.49967C15.1668 12.4577 11.9582 15.6663 8.00016 15.6663C4.04212 15.6663 0.833496 12.4577 0.833496 8.49967ZM8.00016 3.99967C8.2763 3.99967 8.50016 4.22353 8.50016 4.49967V4.71083C9.58712 4.90545 10.5002 5.72208 10.5002 6.83301C10.5002 7.10915 10.2763 7.33301 10.0002 7.33301C9.72402 7.33301 9.50016 7.10915 9.50016 6.83301C9.50016 6.27016 8.91782 5.66634 8.00016 5.66634C7.08251 5.66634 6.50016 6.27016 6.50016 6.83301C6.50016 7.39585 7.08251 7.99967 8.00016 7.99967C9.29164 7.99967 10.5002 8.88824 10.5002 10.1663C10.5002 11.2773 9.58712 12.0939 8.50016 12.2885V12.4997C8.50016 12.7758 8.2763 12.9997 8.00016 12.9997C7.72402 12.9997 7.50016 12.7758 7.50016 12.4997V12.2885C6.41321 12.0939 5.50016 11.2773 5.50016 10.1663C5.50016 9.8902 5.72402 9.66634 6.00016 9.66634C6.2763 9.66634 6.50016 9.8902 6.50016 10.1663C6.50016 10.7292 7.08251 11.333 8.00016 11.333C8.91782 11.333 9.50016 10.7292 9.50016 10.1663C9.50016 9.60349 8.91782 8.99967 8.00016 8.99967C6.70868 8.99967 5.50016 8.11111 5.50016 6.83301C5.50016 5.72208 6.41321 4.90545 7.50016 4.71083V4.49967C7.50016 4.22353 7.72402 3.99967 8.00016 3.99967Z" fill="white"/>
</svg>
