<svg width="41" height="40" viewBox="0 0 41 40" fill="none" xmlns="http://www.w3.org/2000/svg">
<path fill-rule="evenodd" clip-rule="evenodd" d="M10.4794 2.71432C11.5778 2.07081 12.8563 1.93108 14.0419 2.24292L14.8588 2.45774C15.8219 2.71105 16.6441 3.32841 17.1767 4.16897C18.6898 6.55669 21.9767 6.55669 23.4898 4.16897C24.0225 3.32841 24.8446 2.71105 25.8077 2.45774L26.6246 2.24292C27.8102 1.93108 29.0887 2.07081 30.1871 2.71432C31.0442 3.21647 32.2216 3.94401 33.083 4.63443C33.3371 4.83813 33.5938 5.06249 33.8461 5.29568L33.9137 5.3581C34.6364 6.02579 35.2884 6.62818 35.7428 7.21651C36.2565 7.88161 36.5885 8.61333 36.5832 9.53416C36.5777 10.487 36.1881 11.2407 35.6358 11.9177C35.1338 12.5332 34.4129 13.1831 33.5902 13.9248L33.2143 14.2638C32.3109 15.0784 32.1559 15.2527 32.0698 15.4496C31.9801 15.6548 31.9555 15.9094 31.9555 17.1593L31.9555 30.5199C31.9555 31.5557 31.9556 32.4574 31.8499 33.2128C31.7341 34.0408 31.4828 34.7792 30.934 35.4662C29.8905 36.7726 28.5529 37.0168 26.9672 37.3063C26.8962 37.3193 26.8248 37.3323 26.7529 37.3455C25.0334 37.6618 22.863 37.9167 20.3333 37.9167C17.8035 37.9167 15.6331 37.6618 13.9136 37.3455C13.8417 37.3323 13.7703 37.3193 13.6994 37.3063C12.1137 37.0168 10.776 36.7726 9.73249 35.4662C9.18374 34.7792 8.93246 34.0408 8.81661 33.2128C8.71091 32.4574 8.71097 31.5557 8.71103 30.5199L8.71104 17.1593C8.71104 15.9094 8.68644 15.6548 8.59672 15.4496C8.51063 15.2527 8.35557 15.0784 7.45221 14.2638L7.14341 13.9853C7.12097 13.9651 7.09861 13.9449 7.07631 13.9248C6.25358 13.1831 5.53275 12.5332 5.03067 11.9177C4.47838 11.2407 4.08881 10.487 4.08331 9.53416C4.07801 8.61333 4.41004 7.88161 4.92372 7.21651C5.37811 6.62818 6.03014 6.02578 6.75284 5.35808C6.77528 5.33735 6.79779 5.31655 6.82037 5.29569C7.07272 5.06249 7.32938 4.83813 7.58352 4.63443C8.44488 3.94401 9.62234 3.21647 10.4794 2.71432ZM13.4061 4.66069C12.8255 4.50799 12.2354 4.58298 11.7432 4.87137C10.9005 5.36511 9.85704 6.01607 9.1471 6.58513C8.94907 6.74385 8.73746 6.9281 8.51709 7.13175C7.70527 7.88197 7.21284 8.34257 6.90231 8.74464C6.63696 9.08821 6.58196 9.29167 6.58327 9.51975C6.5844 9.71584 6.63824 9.9334 6.9678 10.3374C7.33397 10.7862 7.90782 11.3083 8.81761 12.1287L9.12641 12.4072C9.17271 12.4489 9.21872 12.4903 9.26439 12.5313C9.95017 13.1477 10.5575 13.6936 10.8874 14.4482C11.2139 15.195 11.2127 16.0197 11.2112 16.9682C11.2111 17.0313 11.211 17.095 11.211 17.1593V30.4417C11.211 31.5782 11.2138 32.3041 11.2925 32.8664C11.3637 33.3752 11.4865 33.6564 11.6858 33.906C12.0919 34.4144 12.469 34.5379 14.3659 34.8868C15.9528 35.1787 17.9712 35.4167 20.3333 35.4167C22.6953 35.4167 24.7137 35.1787 26.3006 34.8868C28.1975 34.5379 28.5746 34.4144 28.9807 33.906C29.18 33.6564 29.3028 33.3752 29.374 32.8664C29.4527 32.3041 29.4555 31.5782 29.4555 30.4417V17.1593C29.4555 17.095 29.4554 17.0313 29.4553 16.9682C29.4539 16.0197 29.4526 15.195 29.7791 14.4482C30.109 13.6936 30.7163 13.1477 31.4021 12.5313C31.4478 12.4903 31.4938 12.4489 31.5401 12.4072L31.8489 12.1287C32.7587 11.3083 33.3325 10.7862 33.6987 10.3374C34.0283 9.9334 34.0821 9.71584 34.0832 9.51975C34.0846 9.29167 34.0295 9.08821 33.7642 8.74464C33.4537 8.34257 32.9612 7.88197 32.1494 7.13175C31.929 6.9281 31.7174 6.74385 31.5194 6.58513C30.8095 6.01608 29.766 5.36511 28.9233 4.87137C28.4311 4.58298 27.841 4.50799 27.2605 4.66069L26.4436 4.87552C26.1131 4.96246 25.8085 5.18042 25.6015 5.50714C23.1068 9.44397 17.5597 9.44397 15.065 5.50714C14.858 5.18042 14.5534 4.96246 14.2229 4.87552L13.4061 4.66069Z" fill="white"/>
</svg>
