<svg width="20" height="20" viewBox="0 0 20 20" fill="none" xmlns="http://www.w3.org/2000/svg">
<path d="M12.9167 12.0837C12.9167 12.5439 12.5437 12.917 12.0834 12.917C11.6232 12.917 11.2501 12.5439 11.2501 12.0837C11.2501 11.6234 11.6232 11.2503 12.0834 11.2503C12.5437 11.2503 12.9167 11.6234 12.9167 12.0837Z" fill="white"/>
<path d="M8.75008 7.91699C8.75008 8.37723 8.37699 8.75033 7.91675 8.75033C7.45651 8.75033 7.08342 8.37723 7.08342 7.91699C7.08342 7.45675 7.45651 7.08366 7.91675 7.08366C8.37699 7.08366 8.75008 7.45675 8.75008 7.91699Z" fill="white"/>
<path fill-rule="evenodd" clip-rule="evenodd" d="M12.942 7.05838C13.1861 7.30246 13.1861 7.69819 12.942 7.94227L7.94202 12.9423C7.69795 13.1863 7.30222 13.1863 7.05814 12.9423C6.81406 12.6982 6.81406 12.3025 7.05814 12.0584L12.0581 7.05838C12.3022 6.81431 12.6979 6.81431 12.942 7.05838Z" fill="white"/>
<path fill-rule="evenodd" clip-rule="evenodd" d="M9.95227 1.04199H10.0479C11.9716 1.04198 13.4791 1.04197 14.6553 1.20011C15.8593 1.36198 16.8093 1.69976 17.555 2.44544C18.3006 3.19111 18.6384 4.14113 18.8003 5.34508C18.9584 6.52132 18.9584 8.02885 18.9584 9.95252V10.0481C18.9584 11.9718 18.9584 13.4793 18.8003 14.6556C18.6384 15.8595 18.3006 16.8095 17.555 17.5552C16.8093 18.3009 15.8593 18.6387 14.6553 18.8005C13.4791 18.9587 11.9716 18.9587 10.0479 18.9587H9.95227C8.02861 18.9587 6.52108 18.9587 5.34484 18.8005C4.14089 18.6387 3.19087 18.3009 2.4452 17.5552C1.69952 16.8095 1.36174 15.8595 1.19987 14.6556C1.04173 13.4793 1.04174 11.9718 1.04175 10.0481V9.95251C1.04174 8.02885 1.04173 6.52132 1.19987 5.34508C1.36174 4.14113 1.69952 3.19111 2.4452 2.44544C3.19087 1.69976 4.14089 1.36198 5.34484 1.20011C6.52107 1.04197 8.0286 1.04198 9.95227 1.04199ZM5.5114 2.43897C4.44606 2.5822 3.80379 2.85461 3.32908 3.32932C2.85436 3.80404 2.58195 4.4463 2.43872 5.51164C2.29308 6.59495 2.29175 8.01847 2.29175 10.0003C2.29175 11.9822 2.29308 13.4057 2.43872 14.489C2.58195 15.5543 2.85436 16.1966 3.32908 16.6713C3.80379 17.146 4.44606 17.4185 5.5114 17.5617C6.59471 17.7073 8.01823 17.7087 10.0001 17.7087C11.9819 17.7087 13.4055 17.7073 14.4888 17.5617C15.5541 17.4185 16.1964 17.146 16.6711 16.6713C17.1458 16.1966 17.4182 15.5543 17.5614 14.489C17.7071 13.4057 17.7084 11.9822 17.7084 10.0003C17.7084 8.01847 17.7071 6.59495 17.5614 5.51164C17.4182 4.4463 17.1458 3.80404 16.6711 3.32932C16.1964 2.85461 15.5541 2.5822 14.4888 2.43897C13.4055 2.29332 11.9819 2.29199 10.0001 2.29199C8.01823 2.29199 6.59471 2.29332 5.5114 2.43897Z" fill="white"/>
</svg>
