<svg width="41" height="40" viewBox="0 0 41 40" fill="none" xmlns="http://www.w3.org/2000/svg">
<path fill-rule="evenodd" clip-rule="evenodd" d="M7.33333 4.5835C6.18274 4.5835 5.25 5.51624 5.25 6.66683C5.25 7.81742 6.18274 8.75016 7.33333 8.75016C8.48393 8.75016 9.41667 7.81742 9.41667 6.66683C9.41667 5.51624 8.48393 4.5835 7.33333 4.5835ZM2.75 6.66683C2.75 4.13552 4.80203 2.0835 7.33333 2.0835C9.86464 2.0835 11.9167 4.13552 11.9167 6.66683C11.9167 8.76479 10.5071 10.5335 8.58333 11.0776V18.7502H19.4167V11.0776C17.4929 10.5335 16.0833 8.76479 16.0833 6.66683C16.0833 4.13552 18.1354 2.0835 20.6667 2.0835C23.198 2.0835 25.25 4.13552 25.25 6.66683C25.25 8.76479 23.8404 10.5335 21.9167 11.0776V18.7502H27.3333C28.94 18.7502 30.0193 18.7475 30.8243 18.6393C31.5934 18.5359 31.9226 18.3572 32.1398 18.14C32.357 17.9228 32.5357 17.5936 32.6391 16.8245C32.7473 16.0194 32.75 14.9402 32.75 13.3335V11.0776C30.8262 10.5335 29.4167 8.76479 29.4167 6.66683C29.4167 4.13552 31.4687 2.0835 34 2.0835C36.5313 2.0835 38.5833 4.13552 38.5833 6.66683C38.5833 8.76479 37.1738 10.5335 35.25 11.0776V13.4202C35.25 14.9176 35.2501 16.1663 35.1168 17.1576C34.9761 18.204 34.6667 19.1486 33.9076 19.9077C33.1485 20.6669 32.2038 20.9763 31.1575 21.117C30.1662 21.2503 28.9175 21.2502 27.42 21.2502L21.9167 21.2502V28.9227C23.8404 29.4668 25.25 31.2355 25.25 33.3335C25.25 35.8648 23.198 37.9168 20.6667 37.9168C18.1354 37.9168 16.0833 35.8648 16.0833 33.3335C16.0833 31.2355 17.4929 29.4668 19.4167 28.9227V21.2502H8.58333V28.9227C10.5071 29.4668 11.9167 31.2355 11.9167 33.3335C11.9167 35.8648 9.86464 37.9168 7.33333 37.9168C4.80203 37.9168 2.75 35.8648 2.75 33.3335C2.75 31.2355 4.15958 29.4668 6.08333 28.9227V11.0776C4.15958 10.5335 2.75 8.76479 2.75 6.66683ZM20.6667 4.5835C19.5161 4.5835 18.5833 5.51624 18.5833 6.66683C18.5833 7.81742 19.5161 8.75016 20.6667 8.75016C21.8173 8.75016 22.75 7.81742 22.75 6.66683C22.75 5.51624 21.8173 4.5835 20.6667 4.5835ZM34 4.5835C32.8494 4.5835 31.9167 5.51624 31.9167 6.66683C31.9167 7.81742 32.8494 8.75016 34 8.75016C35.1506 8.75016 36.0833 7.81742 36.0833 6.66683C36.0833 5.51624 35.1506 4.5835 34 4.5835ZM29.4167 25.0002C29.4167 24.3098 29.9763 23.7502 30.6667 23.7502H34.4762C36.7687 23.7502 38.5833 25.6401 38.5833 27.9168C38.5833 29.7144 37.4521 31.2708 35.8477 31.8464L38.3994 36.0141C38.7599 36.6029 38.5748 37.3724 37.986 37.7329C37.3973 38.0934 36.6277 37.9083 36.2673 37.3195L33.0615 32.0835H31.9167V36.6668C31.9167 37.3572 31.357 37.9168 30.6667 37.9168C29.9763 37.9168 29.4167 37.3572 29.4167 36.6668V25.0002ZM31.9167 29.5835H34.4762C35.3396 29.5835 36.0833 28.8617 36.0833 27.9168C36.0833 26.9719 35.3396 26.2502 34.4762 26.2502H31.9167V29.5835ZM7.33333 31.2502C6.18274 31.2502 5.25 32.1829 5.25 33.3335C5.25 34.4841 6.18274 35.4168 7.33333 35.4168C8.48393 35.4168 9.41667 34.4841 9.41667 33.3335C9.41667 32.1829 8.48393 31.2502 7.33333 31.2502ZM20.6667 31.2502C19.5161 31.2502 18.5833 32.1829 18.5833 33.3335C18.5833 34.4841 19.5161 35.4168 20.6667 35.4168C21.8173 35.4168 22.75 34.4841 22.75 33.3335C22.75 32.1829 21.8173 31.2502 20.6667 31.2502Z" fill="white"/>
</svg>
