<svg width="32" height="32" viewBox="0 0 32 32" fill="none" xmlns="http://www.w3.org/2000/svg">
<path fill-rule="evenodd" clip-rule="evenodd" d="M9.33329 2.33301C9.88558 2.33301 10.3333 2.78072 10.3333 3.33301V4.34997C11.216 4.33299 12.1885 4.333 13.2581 4.33301H18.7418C19.8114 4.333 20.7839 4.33299 21.6666 4.34997V3.33301C21.6666 2.78072 22.1143 2.33301 22.6666 2.33301C23.2189 2.33301 23.6666 2.78072 23.6666 3.33301V4.43579C24.0132 4.46222 24.3414 4.49543 24.652 4.53719C26.2152 4.74736 27.4805 5.19018 28.4783 6.188C29.4761 7.18582 29.9189 8.45108 30.1291 10.0143C30.1963 10.5139 30.2414 11.0591 30.2716 11.6531C30.3115 11.7611 30.3333 11.8778 30.3333 11.9997C30.3333 12.0921 30.3207 12.1816 30.2973 12.2666C30.3333 13.3359 30.3333 14.55 30.3333 15.9245V18.6663C30.3333 19.2186 29.8856 19.6663 29.3333 19.6663C28.781 19.6663 28.3333 19.2186 28.3333 18.6663V15.9997C28.3333 14.861 28.3329 13.87 28.3158 12.9997H3.68407C3.66705 13.87 3.66663 14.861 3.66663 15.9997V18.6663C3.66663 21.2088 3.66875 23.015 3.85297 24.3852C4.03333 25.7267 4.37155 26.4995 4.93583 27.0638C5.50011 27.6281 6.27297 27.9663 7.61442 28.1467C8.98464 28.3309 10.7909 28.333 13.3333 28.333H18.6666C19.2189 28.333 19.6666 28.7807 19.6666 29.333C19.6666 29.8853 19.2189 30.333 18.6666 30.333H13.2581C10.8077 30.333 8.86688 30.333 7.34793 30.1288C5.7847 29.9187 4.51943 29.4758 3.52162 28.478C2.5238 27.4802 2.08098 26.2149 1.87081 24.6517C1.66659 23.1328 1.66661 21.1919 1.66663 18.7416V15.9245C1.66661 14.55 1.6666 13.3359 1.70264 12.2666C1.67917 12.1816 1.66663 12.0921 1.66663 11.9997C1.66663 11.8778 1.68842 11.7611 1.72832 11.6531C1.75856 11.0591 1.80364 10.5139 1.87081 10.0143C2.08098 8.45108 2.5238 7.18582 3.52162 6.188C4.51943 5.19018 5.7847 4.74736 7.34793 4.53719C7.6585 4.49543 7.9867 4.46222 8.33329 4.43579V3.33301C8.33329 2.78072 8.78101 2.33301 9.33329 2.33301ZM3.77554 10.9997H28.2244C28.203 10.7472 28.1775 10.508 28.1469 10.2808C27.9666 8.93935 27.6284 8.16649 27.0641 7.60221C26.4998 7.03793 25.7269 6.69971 24.3855 6.51935C23.0153 6.33513 21.2091 6.33301 18.6666 6.33301H13.3333C10.7909 6.33301 8.98464 6.33513 7.61442 6.51935C6.27297 6.69971 5.50011 7.03793 4.93583 7.60221C4.37155 8.16649 4.03333 8.93935 3.85297 10.2808C3.82243 10.508 3.79689 10.7472 3.77554 10.9997ZM24 20.9997C22.3431 20.9997 21 22.3428 21 23.9997C21 25.6565 22.3431 26.9997 24 26.9997C25.6568 26.9997 27 25.6565 27 23.9997C27 22.3428 25.6568 20.9997 24 20.9997ZM19 23.9997C19 21.2383 21.2385 18.9997 24 18.9997C26.7614 18.9997 29 21.2383 29 23.9997C29 25.0188 28.6951 25.9666 28.1716 26.7571L30.0404 28.6259C30.4309 29.0164 30.4309 29.6496 30.0404 30.0401C29.6499 30.4306 29.0167 30.4306 28.6262 30.0401L26.7573 28.1713C25.9669 28.6948 25.019 28.9997 24 28.9997C21.2385 28.9997 19 26.7611 19 23.9997Z" fill="#575F67"/>
</svg>
