<svg width="16" height="17" viewBox="0 0 16 17" fill="none" xmlns="http://www.w3.org/2000/svg">
<path d="M10.3335 10.1663C10.3335 10.5345 10.035 10.833 9.66683 10.833C9.29864 10.833 9.00016 10.5345 9.00016 10.1663C9.00016 9.79815 9.29864 9.49967 9.66683 9.49967C10.035 9.49967 10.3335 9.79815 10.3335 10.1663Z" fill="white"/>
<path d="M7.00016 6.83301C7.00016 7.2012 6.70169 7.49967 6.3335 7.49967C5.96531 7.49967 5.66683 7.2012 5.66683 6.83301C5.66683 6.46482 5.96531 6.16634 6.3335 6.16634C6.70169 6.16634 7.00016 6.46482 7.00016 6.83301Z" fill="white"/>
<path fill-rule="evenodd" clip-rule="evenodd" d="M10.3537 6.14612C10.549 6.34138 10.549 6.65797 10.3537 6.85323L6.35372 10.8532C6.15845 11.0485 5.84187 11.0485 5.64661 10.8532C5.45135 10.658 5.45135 10.3414 5.64661 10.1461L9.64661 6.14612C9.84187 5.95086 10.1585 5.95086 10.3537 6.14612Z" fill="white"/>
<path fill-rule="evenodd" clip-rule="evenodd" d="M7.96191 1.33301H8.03841C9.57734 1.333 10.7834 1.33299 11.7244 1.45951C12.6875 1.589 13.4475 1.85923 14.0441 2.45577C14.6406 3.05231 14.9108 3.81232 15.0403 4.77548C15.1668 5.71647 15.1668 6.9225 15.1668 8.46143V8.53792C15.1668 10.0769 15.1668 11.2829 15.0403 12.2239C14.9108 13.187 14.6406 13.947 14.0441 14.5436C13.4475 15.1401 12.6875 15.4103 11.7244 15.5398C10.7834 15.6664 9.57734 15.6663 8.03841 15.6663H7.96191C6.42298 15.6663 5.21696 15.6664 4.27597 15.5398C3.31281 15.4103 2.55279 15.1401 1.95625 14.5436C1.35971 13.947 1.08949 13.187 0.959994 12.2239C0.833481 11.2829 0.833488 10.0769 0.833496 8.53793V8.46142C0.833488 6.92249 0.833481 5.71647 0.959994 4.77548C1.08949 3.81232 1.35971 3.05231 1.95625 2.45577C2.55279 1.85923 3.31281 1.589 4.27597 1.45951C5.21696 1.33299 6.42298 1.333 7.96191 1.33301ZM4.40921 2.45059C3.55695 2.56517 3.04313 2.7831 2.66336 3.16287C2.28359 3.54264 2.06566 4.05646 1.95108 4.90873C1.83456 5.77538 1.8335 6.91419 1.8335 8.49967C1.8335 10.0852 1.83456 11.224 1.95108 12.0906C2.06566 12.9429 2.28359 13.4567 2.66336 13.8365C3.04313 14.2162 3.55695 14.4342 4.40921 14.5488C5.27587 14.6653 6.41468 14.6663 8.00016 14.6663C9.58565 14.6663 10.7245 14.6653 11.5911 14.5488C12.4434 14.4342 12.9572 14.2162 13.337 13.8365C13.7167 13.4567 13.9347 12.9429 14.0492 12.0906C14.1658 11.224 14.1668 10.0852 14.1668 8.49967C14.1668 6.91419 14.1658 5.77538 14.0492 4.90873C13.9347 4.05646 13.7167 3.54264 13.337 3.16287C12.9572 2.7831 12.4434 2.56517 11.5911 2.45059C10.7245 2.33407 9.58565 2.33301 8.00016 2.33301C6.41468 2.33301 5.27587 2.33407 4.40921 2.45059Z" fill="white"/>
</svg>
