<svg width="32" height="32" viewBox="0 0 32 32" fill="none" xmlns="http://www.w3.org/2000/svg">
<path fill-rule="evenodd" clip-rule="evenodd" d="M12.1328 3.19656C12.3317 3.71179 12.0753 4.29069 11.5601 4.48958C11.3715 4.56238 11.1851 4.63968 11.0011 4.72136C10.4964 4.94545 9.9055 4.71791 9.68141 4.21313C9.45732 3.70836 9.68486 3.11749 10.1896 2.8934C10.4036 2.79839 10.6204 2.70846 10.8398 2.62377C11.3551 2.42488 11.934 2.68133 12.1328 3.19656ZM7.53035 5.65352C7.91123 6.05346 7.89579 6.68643 7.49586 7.06732C7.34963 7.20658 7.20682 7.34939 7.06756 7.49562C6.68668 7.89555 6.0537 7.91099 5.65377 7.53011C5.25383 7.14923 5.23839 6.51625 5.61927 6.11632C5.78096 5.94654 5.94678 5.78072 6.11656 5.61903C6.51649 5.23815 7.14947 5.25359 7.53035 5.65352ZM4.21338 9.68117C4.71816 9.90526 4.9457 10.4961 4.72161 11.0009C4.63993 11.1849 4.56262 11.3712 4.48983 11.5598C4.29094 12.0751 3.71203 12.3315 3.1968 12.1326C2.68157 11.9337 2.42513 11.3548 2.62402 10.8396C2.70871 10.6202 2.79863 10.4034 2.89364 10.1894C3.11773 9.68462 3.7086 9.45707 4.21338 9.68117ZM2.69486 14.6719C3.24699 14.6852 3.68376 15.1436 3.67042 15.6958C3.66798 15.7968 3.66675 15.8982 3.66675 15.9998C3.66675 16.1015 3.66798 16.2029 3.67042 16.3039C3.68376 16.856 3.24699 17.3144 2.69486 17.3278C2.14274 17.3411 1.68434 16.9043 1.671 16.3522C1.66817 16.2351 1.66675 16.1176 1.66675 15.9998C1.66675 15.8821 1.66817 15.7646 1.671 15.6475C1.68434 15.0953 2.14274 14.6586 2.69486 14.6719ZM28.8034 19.8671C29.3186 20.066 29.575 20.6449 29.3761 21.1601C29.2915 21.3795 29.2015 21.5963 29.1065 21.8103C28.8824 22.3151 28.2916 22.5426 27.7868 22.3185C27.282 22.0944 27.0545 21.5035 27.2786 20.9988C27.3602 20.8148 27.4375 20.6284 27.5103 20.4399C27.7092 19.9246 28.2881 19.6682 28.8034 19.8671ZM3.1968 19.8671C3.71203 19.6682 4.29094 19.9246 4.48983 20.4399C4.56262 20.6284 4.63993 20.8148 4.72161 20.9988C4.9457 21.5036 4.71816 22.0944 4.21338 22.3185C3.7086 22.5426 3.11773 22.3151 2.89364 21.8103C2.79864 21.5963 2.70871 21.3795 2.62402 21.1601C2.42513 20.6449 2.68157 20.066 3.1968 19.8671ZM26.3464 24.4696C26.7463 24.8504 26.7618 25.4834 26.3809 25.8834C26.2192 26.0531 26.0534 26.219 25.8836 26.3806C25.4837 26.7615 24.8507 26.7461 24.4698 26.3461C24.0889 25.9462 24.1044 25.3132 24.5043 24.9324C24.6505 24.7931 24.7933 24.6503 24.9326 24.5041C25.3135 24.1041 25.9465 24.0887 26.3464 24.4696ZM5.65377 24.4696C6.0537 24.0887 6.68668 24.1041 7.06756 24.5041C7.20682 24.6503 7.34963 24.7931 7.49586 24.9324C7.89579 25.3132 7.91124 25.9462 7.53035 26.3461C7.14947 26.7461 6.51649 26.7615 6.11656 26.3806C5.94678 26.219 5.78097 26.0531 5.61927 25.8834C5.23839 25.4834 5.25383 24.8504 5.65377 24.4696ZM9.68141 27.7865C9.9055 27.2818 10.4964 27.0542 11.0011 27.2783C11.1851 27.36 11.3715 27.4373 11.5601 27.5101C12.0753 27.709 12.3317 28.2879 12.1328 28.8031C11.934 29.3183 11.3551 29.5748 10.8398 29.3759C10.6204 29.2912 10.4036 29.2013 10.1896 29.1063C9.68486 28.8822 9.45732 28.2913 9.68141 27.7865ZM22.3188 27.7865C22.5428 28.2913 22.3153 28.8822 21.8105 29.1063C21.5965 29.2013 21.3797 29.2912 21.1603 29.3759C20.6451 29.5748 20.0662 29.3183 19.8673 28.8031C19.6684 28.2879 19.9249 27.709 20.4401 27.5101C20.6287 27.4373 20.815 27.36 20.999 27.2783C21.5038 27.0542 22.0947 27.2818 22.3188 27.7865ZM14.6721 29.3051C14.6855 28.7529 15.1439 28.3162 15.696 28.3295C15.797 28.3319 15.8984 28.3332 16.0001 28.3332C16.1018 28.3332 16.2031 28.3319 16.3042 28.3295C16.8563 28.3162 17.3147 28.7529 17.328 29.3051C17.3414 29.8572 16.9046 30.3156 16.3525 30.3289C16.2353 30.3317 16.1179 30.3332 16.0001 30.3332C15.8823 30.3332 15.7648 30.3317 15.6477 30.3289C15.0956 30.3156 14.6588 29.8572 14.6721 29.3051Z" fill="#575F67"/>
<path fill-rule="evenodd" clip-rule="evenodd" d="M15.0001 2.6665C15.0001 2.11422 15.4478 1.6665 16.0001 1.6665C23.9162 1.6665 30.3334 8.08376 30.3334 15.9998C30.3334 16.5521 29.8857 16.9998 29.3334 16.9998C28.7811 16.9998 28.3334 16.5521 28.3334 15.9998C28.3334 9.18832 22.8116 3.6665 16.0001 3.6665C15.4478 3.6665 15.0001 3.21879 15.0001 2.6665ZM16.0001 10.9998C16.5524 10.9998 17.0001 11.4476 17.0001 11.9998V16.3332H21.3334C21.8857 16.3332 22.3334 16.7809 22.3334 17.3332C22.3334 17.8855 21.8857 18.3332 21.3334 18.3332H16.0001C15.4478 18.3332 15.0001 17.8855 15.0001 17.3332V11.9998C15.0001 11.4476 15.4478 10.9998 16.0001 10.9998Z" fill="#575F67"/>
</svg>
