<svg width="40" height="40" viewBox="0 0 40 40" fill="none" xmlns="http://www.w3.org/2000/svg">
<path fill-rule="evenodd" clip-rule="evenodd" d="M7.08325 8.1579C7.08325 5.72348 9.05673 3.75 11.4911 3.75H28.5087C30.9431 3.75 32.9166 5.72348 32.9166 8.15789V13.3333C32.9166 20.0453 27.7971 25.5616 21.2499 26.1903V33.7499H26.2499C26.9403 33.7499 27.4999 34.3095 27.4999 34.9999C27.4999 35.6902 26.9403 36.2499 26.2499 36.2499H13.7499C13.0596 36.2499 12.4999 35.6902 12.4999 34.9999C12.4999 34.3095 13.0596 33.7499 13.7499 33.7499H18.7499V26.1903C12.2028 25.5616 7.08325 20.0453 7.08325 13.3333V8.1579ZM11.4911 6.25C10.4374 6.25 9.58325 7.10419 9.58325 8.1579V13.3333C9.58325 13.3823 9.58359 13.4312 9.58427 13.48C9.92121 13.3492 10.334 13.1954 10.7912 13.0387C11.9718 12.6341 13.5635 12.1693 14.9232 12.0857C17.371 11.9351 19.137 13.0108 20.5712 13.8843C20.5975 13.9004 20.6237 13.9164 20.6499 13.9323C22.1473 14.8437 23.3072 15.5184 24.9232 15.419C25.9282 15.3572 27.2532 14.9887 28.3981 14.5963C28.9552 14.4054 29.4425 14.2185 29.79 14.0794C29.9634 14.01 30.1012 13.9529 30.1945 13.9136C30.2411 13.894 30.2766 13.8788 30.2997 13.8689L30.3251 13.8579L30.3306 13.8555C30.3551 13.8448 30.3804 13.8346 30.4052 13.8255C30.4128 13.6624 30.4166 13.4983 30.4166 13.3333V8.15789C30.4166 7.10419 29.5624 6.25 28.5087 6.25H11.4911ZM29.8489 16.734C28.4393 20.8171 24.5621 23.75 19.9999 23.75C15.1802 23.75 11.125 20.4767 9.93618 16.0318C10.013 16.0001 10.1049 15.9626 10.2098 15.9206C10.5574 15.7815 11.0447 15.5946 11.6017 15.4037C12.7466 15.0113 14.0716 14.6428 15.0767 14.581C16.6926 14.4816 17.8526 15.1563 19.35 16.0677C19.3761 16.0836 19.4023 16.0996 19.4287 16.1157C20.8629 16.9892 22.6288 18.0649 25.0767 17.9143C26.4364 17.8307 28.028 17.3659 29.2086 16.9613C29.4341 16.884 29.6488 16.8074 29.8489 16.734Z" fill="white"/>
</svg>
