<svg width="20" height="20" viewBox="0 0 20 20" fill="none" xmlns="http://www.w3.org/2000/svg">
<path fill-rule="evenodd" clip-rule="evenodd" d="M10.0001 2.29199C5.74289 2.29199 2.29175 5.74313 2.29175 10.0003C2.29175 14.2575 5.74289 17.7087 10.0001 17.7087C14.2573 17.7087 17.7084 14.2575 17.7084 10.0003C17.7084 5.74313 14.2573 2.29199 10.0001 2.29199ZM1.04175 10.0003C1.04175 5.05277 5.05253 1.04199 10.0001 1.04199C14.9476 1.04199 18.9584 5.05277 18.9584 10.0003C18.9584 14.9479 14.9476 18.9587 10.0001 18.9587C5.05253 18.9587 1.04175 14.9479 1.04175 10.0003ZM10.0001 4.37533C10.3453 4.37533 10.6251 4.65515 10.6251 5.00033V5.26427C11.9838 5.50755 13.1251 6.52833 13.1251 7.91699C13.1251 8.26217 12.8453 8.54199 12.5001 8.54199C12.1549 8.54199 11.8751 8.26217 11.8751 7.91699C11.8751 7.21343 11.1472 6.45866 10.0001 6.45866C8.85301 6.45866 8.12508 7.21343 8.12508 7.91699C8.12508 8.62055 8.85301 9.37533 10.0001 9.37533C11.6144 9.37533 13.1251 10.486 13.1251 12.0837C13.1251 13.4723 11.9838 14.4931 10.6251 14.7364V15.0003C10.6251 15.3455 10.3453 15.6253 10.0001 15.6253C9.6549 15.6253 9.37508 15.3455 9.37508 15.0003V14.7364C8.01639 14.4931 6.87508 13.4723 6.87508 12.0837C6.87508 11.7385 7.1549 11.4587 7.50008 11.4587C7.84526 11.4587 8.12508 11.7385 8.12508 12.0837C8.12508 12.7872 8.85301 13.542 10.0001 13.542C11.1472 13.542 11.8751 12.7872 11.8751 12.0837C11.8751 11.3801 11.1472 10.6253 10.0001 10.6253C8.38573 10.6253 6.87508 9.51462 6.87508 7.91699C6.87508 6.52833 8.01639 5.50755 9.37508 5.26427V5.00033C9.37508 4.65515 9.6549 4.37533 10.0001 4.37533Z" fill="white"/>
</svg>
