<svg width="25" height="24" viewBox="0 0 25 24" fill="none" xmlns="http://www.w3.org/2000/svg">
<path fill-rule="evenodd" clip-rule="evenodd" d="M12.5 2.25C10.9812 2.25 9.75 3.48122 9.75 5C9.75 5.78328 10.0776 6.48937 10.6018 6.98967C10.5375 7.10378 10.471 7.22294 10.4022 7.34628L8.60504 10.5686C8.42732 10.8873 8.32158 11.0749 8.2325 11.2018C8.20459 11.2415 8.18483 11.2655 8.17287 11.2788L8.17118 11.2791C8.15596 11.2695 8.13012 11.2518 8.0918 11.2208C7.97104 11.1231 7.81753 10.9715 7.55879 10.7138L7.47976 10.635C7.1607 10.317 6.87058 10.0279 6.60664 9.79144C6.69926 9.54508 6.75 9.27824 6.75 9C6.75 7.75736 5.74264 6.75 4.5 6.75C3.25736 6.75 2.25 7.75736 2.25 9C2.25 9.98302 2.8804 10.8188 3.75898 11.1251C3.76199 11.1822 3.76564 11.2399 3.76976 11.298C3.79277 11.6228 3.83458 12.0116 3.88243 12.4564L4.0671 14.1733C4.09705 14.4517 4.12574 14.7289 4.15412 15.0031C4.26616 16.0856 4.37332 17.121 4.53322 17.994C4.6343 18.5459 4.76178 19.0659 4.93833 19.5172C5.11339 19.9648 5.3549 20.3925 5.71187 20.712C6.34173 21.2758 7.10137 21.522 8.00819 21.6381C8.88307 21.75 9.98625 21.75 11.3602 21.75H13.6398C15.0137 21.75 16.1169 21.75 16.9918 21.6381C17.8986 21.522 18.6583 21.2758 19.2881 20.712C19.6451 20.3925 19.8866 19.9648 20.0617 19.5172C20.2382 19.0659 20.3657 18.5459 20.4668 17.994C20.6267 17.1211 20.7338 16.0858 20.8459 15.0034C20.8742 14.7293 20.903 14.4516 20.9329 14.1733L21.1176 12.4565C21.1654 12.0116 21.2072 11.6228 21.2302 11.298C21.2344 11.2399 21.238 11.1822 21.241 11.1251C22.1196 10.8188 22.75 9.98302 22.75 9C22.75 7.75736 21.7426 6.75 20.5 6.75C19.2574 6.75 18.25 7.75736 18.25 9C18.25 9.27824 18.3007 9.54509 18.3934 9.79145C18.1294 10.0279 17.8393 10.317 17.5202 10.635L17.4412 10.7138C17.1825 10.9715 17.029 11.1231 16.9082 11.2208C16.8699 11.2518 16.844 11.2695 16.8288 11.2791L16.8271 11.2788C16.8152 11.2655 16.7954 11.2415 16.7675 11.2018C16.6784 11.0749 16.5727 10.8873 16.395 10.5686L14.5977 7.34619C14.5289 7.22288 14.4625 7.10375 14.3982 6.98967C14.9224 6.48937 15.25 5.78328 15.25 5C15.25 3.48122 14.0188 2.25 12.5 2.25ZM11.25 5C11.25 4.30964 11.8096 3.75 12.5 3.75C13.1904 3.75 13.75 4.30964 13.75 5C13.75 5.48504 13.4739 5.90689 13.0668 6.11457C12.8975 6.20095 12.7056 6.25 12.5 6.25C12.2944 6.25 12.1025 6.20095 11.9332 6.11457C11.5261 5.90689 11.25 5.48504 11.25 5ZM11.7046 8.09072C11.7857 7.94528 11.8599 7.81229 11.9288 7.69043C12.1133 7.72949 12.3045 7.75 12.5 7.75C12.6955 7.75 12.8867 7.72949 13.0712 7.69043C13.1401 7.81229 13.2143 7.94528 13.2954 8.09071L15.1016 11.3291C15.2569 11.6077 15.4005 11.8653 15.5399 12.0638C15.6885 12.2753 15.8911 12.5089 16.2015 12.6456C16.4698 12.7637 16.7657 12.8049 17.056 12.7648C17.3918 12.7184 17.6507 12.5495 17.8517 12.3869C18.0403 12.2343 18.2493 12.026 18.4756 11.8006L18.4998 11.7765C18.8752 11.4026 19.1497 11.1315 19.3593 10.9397C19.4792 11.0103 19.6061 11.0701 19.7389 11.1179C19.7374 11.1417 19.7358 11.1664 19.734 11.192C19.7131 11.4865 19.6743 11.8486 19.6249 12.3082L19.4415 14.0129C19.4095 14.3104 19.3794 14.6003 19.3502 14.8822C19.2807 15.553 19.2159 16.178 19.141 16.75H5.85903C5.78409 16.178 5.7193 15.553 5.64978 14.8822C5.62056 14.6003 5.5905 14.3104 5.5585 14.0129L5.37514 12.3082C5.32571 11.8486 5.28687 11.4865 5.26601 11.192C5.2642 11.1664 5.26255 11.1417 5.26107 11.1179C5.39386 11.0701 5.52084 11.0103 5.64066 10.9397C5.85033 11.1315 6.12484 11.4026 6.5002 11.7765L6.52438 11.8006C6.75065 12.026 6.95971 12.2343 7.14834 12.3869C7.34933 12.5495 7.60824 12.7184 7.94397 12.7648C8.23429 12.8049 8.53016 12.7637 8.79846 12.6456C9.10887 12.5089 9.31155 12.2753 9.46009 12.0638C9.59945 11.8653 9.74306 11.6078 9.89842 11.3291L11.7046 8.09072ZM6.11801 18.25C6.18337 18.526 6.25521 18.7662 6.33525 18.9708C6.46405 19.3 6.5962 19.4904 6.71228 19.5943C7.02851 19.8774 7.4509 20.0545 8.19857 20.1502C8.96719 20.2486 9.97421 20.25 11.4121 20.25H13.5879C15.0258 20.25 16.0328 20.2486 16.8014 20.1502C17.5491 20.0545 17.9715 19.8774 18.2877 19.5943C18.4038 19.4904 18.536 19.3 18.6647 18.9708C18.7448 18.7662 18.8166 18.526 18.882 18.25H6.11801ZM3.75 9C3.75 8.58579 4.08579 8.25 4.5 8.25C4.91421 8.25 5.25 8.58579 5.25 9C5.25 9.18789 5.18188 9.35799 5.06799 9.48982C4.9311 9.64827 4.73192 9.74737 4.50904 9.74995L4.5 9.75C4.08579 9.75 3.75 9.41421 3.75 9ZM19.75 9C19.75 8.58579 20.0858 8.25 20.5 8.25C20.9142 8.25 21.25 8.58579 21.25 9C21.25 9.41421 20.9142 9.75 20.5 9.75L20.491 9.74995C20.2681 9.74737 20.0689 9.64827 19.932 9.48982C19.8181 9.35799 19.75 9.18789 19.75 9Z" fill="url(#paint0_linear_83_3973)"/>
<defs>
<linearGradient id="paint0_linear_83_3973" x1="22.75" y1="2.25" x2="3.27436" y2="22.7244" gradientUnits="userSpaceOnUse">
<stop stop-color="#107CE0"/>
<stop offset="1" stop-color="#0093C9"/>
</linearGradient>
</defs>
</svg>
